<svg width="44" height="44" viewBox="0 0 44 44" xmlns="http://www.w3.org/2000/svg">
    <title>
        call
    </title>
    <path d="M21.702 0C9.717 0 0 9.717 0 21.702c0 11.984 9.717 21.701 21.702 21.701 11.984 0 21.701-9.717 21.701-21.701C43.403 9.717 33.686 0 21.702 0zm11.46 31.665l-1.738 1.738c-.31.31-1.218.503-1.248.503a20.507 20.507 0 0 1-14.678-6 20.532 20.532 0 0 1-6.004-14.73c0-.002.2-.884.51-1.191l1.737-1.738c.636-.639 1.857-.927 2.713-.641l.365.122c.853.286 1.749 1.23 1.985 2.098l.874 3.208c.235.872-.082 2.112-.718 2.747l-1.16 1.16a12.324 12.324 0 0 0 8.665 8.669l1.16-1.16c.639-.64 1.878-.957 2.748-.722l3.207.877c.87.24 1.813 1.13 2.099 1.982l.122.37c.283.854-.003 2.075-.64 2.708z" fill="#6DC9C9" fill-rule="nonzero"/>
</svg>
