<svg width="44" height="44" viewBox="0 0 44 44" xmlns="http://www.w3.org/2000/svg">
    <title>
        cost
    </title>
    <path d="M22 0C9.8 0 0 9.8 0 22s9.8 22 22 22 22-9.8 22-22S34.2 0 22 0zm8.7 33.9l-.2.1c-.7.4-1.7.9-3.5.9-.9 0-1.7-.2-2.4-.4-.9-.3-1.9-.6-3.6-.6-2.8 0-4.4.1-5.6.9-.1.1-.2.1-.3.1-.2 0-.3-.1-.4-.2L13 32.2c-.1-.1-.1-.2-.1-.3 0-.2.1-.3.2-.4 2.4-1.6 4.8-3.5 4.8-5.6 0-.4-.1-.9-.2-1.6 0-.2-.3-.4-.5-.4H14c-.6 0-1-.4-1-1v-2c0-.6.4-1 1-1h2.1c.3 0 .6-.3.5-.6-.1-.3-.2-.7-.3-1.1-.2-.7-.3-1.7-.3-2.3 0-3.9 3.1-7 7-7 3.5 0 6.3 2.5 6.9 5.8v.2c0 .6-.4 1-1 1h-2c-.4 0-.9-.4-1-.8-.4-1.3-1.5-2.2-2.9-2.2-1.7 0-3 1.3-3 3 0 .4.1.9.1 1.1.2.7.5 1.6.7 2.5.1.2.3.4.5.4H28c.6 0 1 .4 1 1v2c0 .6-.4 1-1 1h-5.6c-.3 0-.5.3-.5.6.1.5.1 1 .1 1.4 0 1.2-.3 2.3-.8 3.3-.2.4 0 .7.4.7 1.9.1 3.2.4 4.1.7.6.2 1 .3 1.3.3.8 0 1.1-.2 1.6-.4l.3-.2c.2-.1.5 0 .7.2l1.4 2.7c0 .1.1.2.1.2-.1.3-.2.5-.4.5z" fill="#6DC9C9" fill-rule="nonzero"/>
</svg>
