<svg width="359" height="332" viewBox="0 0 359 332" xmlns="http://www.w3.org/2000/svg" xmlns:xlink="http://www.w3.org/1999/xlink">
    <title>
        ballymoney
    </title>
    <defs>
        <circle id="a" cx="165" cy="165" r="165"/>
    </defs>
    <g fill="none" fill-rule="evenodd">
        <g transform="translate(1 1)">
            <mask id="b" fill="#fff">
                <use xlink:href="#a"/>
            </mask>
            <use stroke="#C4C4C4" fill="#FFF" xlink:href="#a"/>
            <g fill-rule="nonzero" mask="url(#b)">
                <g stroke-linejoin="round" stroke-opacity=".3" stroke="#000" fill="#6DC9C9">
                    <path d="M62.499 357.734c-3.033-1.91-3.54-2.549-3.175-4 .352-1.402.023-1.9-1.74-2.628-3.448-1.426-4.737-3.277-4.148-5.956.443-2.012.159-2.648-2.153-4.824-1.464-1.38-3.912-2.92-5.44-3.423-4.292-1.414-9.806-4.351-10.503-5.595-.5-.891-1.047-.962-2.677-.343-1.72.652-2.01 1.15-1.814 3.1.171 1.704-.163 2.547-1.257 3.162-2.717 1.53-8.938 6.012-9.203 6.63-.144.335-1.597 1.45-3.229 2.48-1.977 1.245-2.824 2.242-2.539 2.985.27.7-.916 2.48-3.178 4.774l-3.607 3.658-2.867-2.134c-2.198-1.636-3.151-1.956-4.086-1.373-1.925 1.2-5.143-1.257-4.938-3.772.107-1.305-.41-2.449-1.499-3.317-.914-.728-2.08-2.476-2.59-3.884-.744-2.058-1.233-2.484-2.49-2.169-2.077.52-6.672-4.946-5.981-7.117.287-.903-.15-2.273-1.16-3.636-.891-1.203-1.391-2.558-1.111-3.01.28-.452-.184-1.7-1.03-2.775-2.975-3.775-2.023-5.203 6.057-9.082 2.78-1.333 5.185-3.012 5.432-3.789.743-2.336 2.315-3.233 4.047-2.308 1.2.641 2.427.441 5.823-.949a292.617 292.617 0 0 1 8.952-3.453c4.094-1.488 4.6-1.886 4.24-3.324-.262-1.038.149-2.294 1.124-3.446 1.482-1.748 1.575-1.764 2.613-.425 1.048 1.35 1.231 1.34 6.602-.324 3.606-1.117 5.497-2.08 5.444-2.771-.044-.583.826-1.747 1.935-2.586 1.602-1.214 2.234-1.344 3.09-.635.591.49.903 1.548.693 2.351-.325 1.24 0 1.461 2.14 1.461 1.49 0 3.691.794 5.381 1.94l2.86 1.94 2.115-2.312c2.34-2.557 3.317-2.845 4.217-1.239.331.59 1.43 1.38 2.444 1.754 1.516.56 1.981.403 2.632-.888.595-1.179 1.522-1.58 3.742-1.623 1.623-.03 3.879-.505 5.013-1.055 1.837-.89 2.173-.847 3.086.4.847 1.157 1.222 1.235 2.166.453 1.368-1.133 7.074.076 8.403 1.78.447.573 1.582 1.326 2.521 1.673 1.338.494 2.103.237 3.527-1.185 1.627-1.624 2.225-1.763 5.676-1.316 3.59.464 11.683 4.44 11.683 5.739 0 1.798-1.762 4.541-3.654 5.69-2.19 1.33-2.195 1.346-.992 3.825 1.18 2.433 1.165 2.524-.704 4.058-1.848 1.518-3.815 4.505-3.974 6.034-.126 1.224-1.263 3.592-2.758 5.746-1.085 1.564-1.227 2.36-.624 3.485 1.064 1.986 1.015 2.293-.854 5.277-.897 1.432-1.554 3.138-1.46 3.792.094.653-.343 1.614-.971 2.134-.934.773-1.482.723-3.009-.275-1.026-.672-1.866-1.495-1.866-1.829 0-1.273-3.708-2.358-5.097-1.492-1.02.636-1.875.547-3.669-.379-1.286-.664-2.493-1.207-2.682-1.207-.551 0-.11 1.718.923 3.596.803 1.459.768 1.942-.222 3.034-.647.715-1.177 1.87-1.177 2.566 0 .697-.549 2.512-1.22 4.034-.671 1.521-1.258 4.435-1.304 6.476-.105 4.609-1.044 4.898-5.93 1.821z"/>
                    <path d="M-49.85 326.321c-1.593-1.064-3.736-2.7-4.76-3.633-1.13-1.028-3.333-1.907-5.59-2.23-5.109-.73-5.912-1.296-7.078-4.99-.556-1.763-1.485-3.768-2.062-4.453-1.573-1.866-.843-3.812 1.953-5.207 1.373-.685 2.916-1.857 3.43-2.604 1.56-2.27 3.523-9.052 3.05-10.539-.26-.814.029-1.79.69-2.338 1.74-1.44 1.365-2.457-1.617-4.387-2.192-1.418-3.001-1.602-4.08-.93-2.117 1.32-2.626 1.09-7.157-3.243-3.804-3.637-4.616-4.083-7.452-4.092-2.662-.008-3.322-.312-4.027-1.857-.567-1.242-1.672-2.003-3.374-2.322-1.392-.26-3.07-1.012-3.728-1.67-.819-.817-2.559-1.2-5.49-1.212-3.259-.013-4.836-.418-6.55-1.683-1.242-.916-2.717-1.49-3.279-1.275-1.976.757-4.48-.858-5.315-3.43-.652-2.006-1.958-3.227-6.227-5.82-4.27-2.592-5.403-3.651-5.403-5.049 0-1.202-.597-1.995-1.863-2.475-1.025-.39-1.863-1.086-1.863-1.55 0-.462 1.722-2.455 3.826-4.428 2.604-2.44 3.68-3.967 3.37-4.777-.315-.817.296-1.65 1.948-2.655 3.087-1.88 3.246-1.863 5.703.59 1.135 1.133 2.937 2.458 4.005 2.944 1.068.486 2.47 1.902 3.115 3.147 1.41 2.724 2.574 2.834 5.362.506 1.159-.967 2.922-2.013 3.919-2.324.996-.312 2.84-1.194 4.098-1.96 3.316-2.018 4.3-1.774 7.782 1.936 3.082 3.283 3.112 3.366 1.984 5.543-1.472 2.842-1.514 2.694 1.063 3.76 2.95 1.22 6.357 5.787 6.36 8.526.002 1.703.565 2.518 2.532 3.665l2.53 1.475 2.754-3.225 2.755-3.225 5.281.49c3.939.365 5.535.238 6.275-.5 1.353-1.352 7.606-2.12 9.964-1.226 2.853 1.083 4.974.235 7.046-2.82 3.178-4.684 6.051-7.612 7.468-7.612.75 0 2.094 1.025 2.989 2.28l1.625 2.279-1.575.41c-1.925.503-2.086 1.727-.227 1.727.742 0 1.987.466 2.767 1.035 1.127.823 1.236 1.254.532 2.101-.973 1.171.058 2.816 1.766 2.816.494 0 2.303 1.171 4.02 2.604 1.717 1.432 3.37 2.604 3.673 2.604 1.246 0 1.48-1.07.475-2.178-.936-1.033-.91-1.398.21-2.88 1.255-1.662 1.343-1.671 4.238-.467 3.083 1.283 10.608 8.176 9.803 8.98-.61.61 2.769 3.24 4.161 3.24 1.3 0 5.013 2.796 5.013 3.774 0 .38-.482.69-1.071.69-.707 0-1.024.698-.932 2.046.13 1.907-.034 2.03-2.429 1.793-2.15-.212-2.426-.08-1.69.804.696.837.494 1.578-.967 3.555-1.016 1.374-2.219 2.728-2.674 3.009-.58.358-.475 1.047.35 2.305 1.61 2.45 1.7 11.34.153 14.888-.298.684-.163 1.95.3 2.815.766 1.429.537 1.705-2.542 3.065-2.566 1.133-3.735 1.307-4.835.72-2.022-1.081-2.117-1.042-3.385 1.406-.776 1.498-2.71 2.94-6.167 4.599-2.77 1.33-5.717 3.014-6.549 3.745-1.35 1.186-2.047 1.24-6.538.496-4.708-.779-5.134-.732-6.706.743-1.115 1.046-2.232 1.43-3.325 1.145-1.252-.327-2.217.214-4.03 2.258-2.838 3.2-3.953 3.309-7.78.752zM102.627 302.82c-.717-.177-1.304-.618-1.304-.98 0-1.305-6.418-4.36-10.2-4.857-3.509-.46-4.025-.334-5.608 1.372-1.632 1.759-1.896 1.814-4.146.87-1.321-.556-2.403-1.32-2.403-1.701 0-.38-1.542-1.08-3.428-1.553-2.616-.658-3.678-.655-4.485.014-.829.687-1.372.592-2.515-.44-1.306-1.18-1.633-1.204-3.153-.221-1.042.673-2.77.967-4.478.762-2.447-.294-2.87-.104-3.51 1.577-.673 1.766-.906 1.85-3.053 1.103-1.278-.445-2.501-1.27-2.717-1.832-.593-1.542-1.431-1.255-3.84 1.319l-2.192 2.34-2.465-1.752c-1.356-.964-3.824-1.934-5.485-2.156-2.48-.331-3.023-.696-3.042-2.037-.012-.898-.264-1.874-.559-2.169-1.01-1.007-.533-1.64 2.823-3.753 3.965-2.496 4.595-3.932 3.065-6.994-1.385-2.771-.93-4.14 1.85-5.576 1.174-.606 2.63-2.06 3.237-3.23 1.43-2.763 2.763-3.211 6.592-2.22 3.985 1.032 7.686-.127 6.853-2.146-1.175-2.849-1.152-3.678.147-5.28 1.172-1.445 2.09-1.677 6.814-1.721 4.345-.041 5.546-.3 5.883-1.263.232-.667 1.112-1.766 1.954-2.444 1.204-.968 1.346-1.455.664-2.276-.68-.818-.551-1.314.596-2.295.805-.688 1.463-1.753 1.463-2.367 0-.615.69-1.539 1.533-2.054.843-.515 2.212-2.024 3.042-3.354.83-1.33 1.943-2.418 2.475-2.418.531 0 1.444-.72 2.029-1.598.981-1.476 1.23-1.519 3.244-.555 1.54.737 2.185 1.589 2.195 2.9.01 1.415.406 1.857 1.66 1.857.906 0 2.356.604 3.224 1.343 1.304 1.11 1.415 1.54.638 2.475-.764.919-.74 1.258.13 1.807 1.595 1.008 2.932.838 2.932-.373 0-1.73 1.478-2.146 2.937-.828 1.268 1.146 1.5 1.077 3.68-1.1 1.279-1.277 2.326-2.589 2.326-2.915 0-.936 6.469-.417 7.72.62.85.705 1.508.73 2.68.104 1.963-1.048 2.715-.58 3.234 2.013.227 1.134 1.292 3.354 2.365 4.934 1.66 2.442 1.885 3.39 1.5 6.324-.25 1.899-1.02 4.791-1.71 6.428-1.311 3.105-7.16 9.472-10.857 11.82-1.597 1.013-1.896 1.518-1.166 1.969 1.319.813-.38 2.95-2.346 2.95-2.939 0 .014 10.57 3.238 11.592 1.01.32 1.271 1.031 1.077 2.924-.31 3.008-1.906 5.229-2.986 4.151-.418-.417-1.261-.476-1.932-.134-1.766.9-4.74 1.39-6.22 1.024z"/>
                    <path d="M.84 306.823c-.456-.85-.585-2.106-.286-2.79 1.556-3.57 1.454-12.441-.173-14.92-1.021-1.556-1.043-1.942-.15-2.63 2.481-1.909 4.376-5.105 3.589-6.053-1.094-1.316.352-2.089 2.773-1.482 1.742.436 1.87.315 1.444-1.379-.327-1.298-.102-2.061.746-2.535 1.067-.596 1.003-.824-.535-1.9-.96-.671-2.189-1.221-2.729-1.221-1.46 0-5.4-3.108-4.92-3.882.228-.368-1.406-2.408-3.63-4.532-3.991-3.81-4.033-3.894-3.074-6.223.535-1.299 1.605-2.562 2.378-2.807.773-.245 2.854-1.78 4.625-3.413 2.257-2.08 3.64-2.834 4.626-2.521 1.364.432 1.366.395.054-1.215-.744-.913-1.94-2.188-2.657-2.835-1.816-1.635-1.628-2.96.559-3.955 2.617-1.191 2.32-2.495-.932-4.082-2.368-1.155-3.029-2.044-4.331-5.827-2.146-6.235-3.555-9.102-4.425-9.008-.41.044-.852-1.22-.983-2.808-.199-2.423.155-3.292 2.199-5.397 1.453-1.497 2.912-2.358 3.616-2.134.751.238 1.64-.4 2.437-1.749 1.22-2.06 1.203-2.172-.592-3.855-1.16-1.089-1.692-2.222-1.43-3.048.23-.723-.102-2.319-.738-3.547-.636-1.227-1.152-3.839-1.148-5.803.007-3.08.53-4.317 3.806-9.004 4.217-6.034 5.504-6.462 7.49-2.494 1.162 2.321 1.26 2.37 1.49.741.197-1.384.706-1.742 2.483-1.742 1.865 0 2.239.3 2.252 1.804.009.992.512 1.96 1.118 2.15.606.191 2.645 1.775 4.532 3.519 2.225 2.056 4.907 3.635 7.633 4.493 4.123 1.298 4.236 1.294 5.885-.177 1.927-1.718 6.598-3.977 8.224-3.977.605 0 1.53.517 2.056 1.15.642.772 1.625 1.002 3 .7 1.566-.343 2.307-.073 3.172 1.16 1.028 1.466.98 1.885-.535 4.731l-1.663 3.123 1.74 1.31c.958.721 1.533 1.646 1.28 2.055-.254.41.108 1.372.803 2.14 1.601 1.766.876 2.975-1.783 2.975-2.77 0-3.082.463-2.138 3.165.722 2.069.606 2.45-1.179 3.871-1.089.867-1.98 1.845-1.98 2.175 0 .329 1.928.502 4.285.385 2.357-.118 5.071.051 6.032.375 1.361.46 2.197.159 3.791-1.366 1.436-1.373 2.469-1.8 3.47-1.433 1.557.57 8.505 6.97 8.505 7.833 0 .294 1.877 2.307 4.17 4.473 2.294 2.166 4.673 4.947 5.286 6.18.613 1.233 2.154 3.123 3.425 4.2 2.272 1.925 2.289 1.99 1.032 3.906-.703 1.071-1.69 1.952-2.193 1.957-.503.005-1.672 1.177-2.598 2.604-.926 1.427-2.011 2.595-2.412 2.595-.4 0-1.219 1.172-1.818 2.604-.6 1.432-1.483 2.604-1.964 2.604-.618 0-.582.352.124 1.201.85 1.023.78 1.388-.468 2.455-.806.689-1.838 1.906-2.291 2.704-.685 1.206-1.76 1.482-6.335 1.627-5.965.19-7.883 1.367-6.987 4.289.911 2.974.693 3.676-1.47 4.732-1.775.867-2.815.911-5.37.229-3.856-1.03-4.732-.738-6.366 2.119-.698 1.221-2.105 2.6-3.126 3.065-2.477 1.127-2.833 2.347-1.476 5.063 1.47 2.94.814 4.803-2.384 6.776-1.424.879-3 1.988-3.5 2.464-.502.477-1.846 1.464-2.987 2.193-1.14.73-1.98 1.855-1.863 2.502.156.871-1.314 1.666-5.67 3.066-5.697 1.831-5.913 1.847-6.896.505-1.37-1.87-2.872-.39-2.872 2.83 0 2.233-.283 2.47-5.217 4.397-6.334 2.472-6.807 2.505-7.856.549z"/>
                    <path d="M-73.612 264.17c-1.84-1.258-2.478-2.207-2.333-3.47.281-2.454-2.679-6.544-5.974-8.257-3.199-1.662-3.154-1.547-1.7-4.355 1.063-2.05 1-2.224-2.01-5.639l-3.106-3.523 2.319-2.069c1.377-1.229 3.958-2.435 6.356-2.97 3.653-.817 4.377-.753 7.611.676 4.268 1.884 5.315 1.957 5.91.41.304-.792.945-1.01 1.996-.676 2.895.917 4.78-.117 4.96-2.723.092-1.317-.197-2.834-.642-3.369-.453-.546-.557-1.55-.234-2.285.315-.72.509-1.597.43-1.947-.08-.35.273-1.14.784-1.754.51-.614 1.277-1.813 1.702-2.665.426-.851 1.806-1.814 3.066-2.14 2.978-.77 12.986-11.254 12.986-13.604 0-.92.36-2.7.798-3.959.645-1.846.558-2.655-.454-4.197-.799-1.217-1.082-2.593-.781-3.79.26-1.035.095-2.587-.367-3.448-.616-1.149-.62-2.048-.018-3.369.64-1.402.57-2.29-.318-4.005-1.423-2.746-.784-4.101 3.64-7.721 2.663-2.177 3.655-2.576 5.5-2.208 1.316.263 2.463.11 2.759-.369.743-1.2 2.71-1 4.305.441.767.693 2.597 1.673 4.066 2.177 3.172 1.089 5.728.348 7.778-2.254 1.83-2.322 5.01-3.116 6.503-1.625.94.94.988 1.61.279 3.92-.662 2.153-.65 2.916.053 3.362 1.486.943 5.225.672 7.567-.547 2.668-1.39 3.94-.984 4.91 1.563.591 1.552.439 2.364-.756 4.04-.823 1.154-1.496 2.465-1.496 2.913 0 .448-.252.817-.56.82-.307.003-1.313 1.112-2.235 2.464-2.017 2.959-2.25 8.4-.505 11.771.645 1.244.97 2.789.722 3.432-.268.698.298 1.949 1.403 3.1l1.853 1.931-1.557 2.454c-1.027 1.62-1.943 2.306-2.696 2.017-.671-.257-2.008.394-3.254 1.586-1.61 1.54-2.114 2.71-2.114 4.903 0 1.584.305 2.693.678 2.463.821-.507 3.367 4.578 4.941 9.87.97 3.259 1.586 4.074 3.904 5.164 3.402 1.6 3.954 3.56 1.336 4.751-2.38 1.082-2.385 1.54-.053 4.051 1.024 1.104 1.863 2.236 1.863 2.516 0 .28-1.51 1.592-3.354 2.914s-3.353 2.736-3.353 3.14c0 .406-1.006 1.087-2.236 1.515-1.23.428-2.236 1.184-2.236 1.68 0 .495-.466 1.537-1.036 2.315-.904 1.235-1.295 1.297-3.067.49-1.754-.797-2.166-.742-3.006.402-.807 1.099-.794 1.525.077 2.49.81.897.848 1.364.166 2.045-1.274 1.273-1.601 1.161-5.057-1.721-1.717-1.432-3.541-2.604-4.054-2.604-1.425 0-3.65-2.733-2.702-3.318 1.44-.888.83-1.838-1.577-2.461-2.815-.728-3.63-2.34-1.467-2.904 1.45-.379 1.468-.502.34-2.22-1.854-2.826-3.878-1.939-7.908 3.463-4.007 5.37-5.707 6.366-8.943 5.24-2.532-.881-7.682-.264-9.782 1.173-1.03.705-2.939.86-6.707.545l-5.267-.44-2.457 3.065c-1.351 1.686-2.727 3.065-3.057 3.065-.33 0-1.74-.78-3.132-1.731zM75.878 359.345a146.106 146.106 0 0 1-3.502-3.829c-.841-.964-2.07-2.058-2.73-2.43-1.04-.588-1.084-1.138-.326-4.109.482-1.886 1.314-3.957 1.85-4.602.792-.953.797-1.495.027-2.894-1.338-2.432-1.395-3.396-.256-4.34.74-.613 1.614-.502 3.423.431 1.897.98 2.727 1.069 3.79.406 1.587-.99 4.585.274 6.735 2.839 1.582 1.886 2.963 2.011 2.705.244-.104-.716.544-2.473 1.441-3.906 1.87-2.984 1.919-3.29.855-5.276-.601-1.121-.466-1.928.585-3.485.753-1.115 1.843-2.968 2.424-4.12.791-1.568 1.438-1.99 2.582-1.684.839.225 1.936.414 2.437.42.502.005 1.433 1.014 2.069 2.242.636 1.227.98 2.232.764 2.232-.215 0 .313.703 1.173 1.562 1.045 1.042 1.814 1.315 2.311.818.498-.497 1.688.167 3.577 1.998 1.557 1.508 3.452 2.766 4.21 2.795.758.028 2.024.325 2.812.66 1.21.514 1.343.386.847-.822-1.207-2.947-1.25-3.841-.235-4.855.573-.572 1.018-1.375.989-1.784-.087-1.215 8.403-1.295 11.882-.112 2.117.72 3.436.836 3.93.343 1.068-1.067 3.802.574 4.646 2.79.759 1.993 3.708 2.56 3.708.714 0-.606 1.402-1.815 3.116-2.688 2.835-1.444 3.195-1.479 3.995-.387 1.134 1.548 2.321 1.525 3.212-.064.646-1.153.959-1.097 3.576.642 2.027 1.347 3.137 2.79 3.782 4.914.854 2.813.764 3.285-1.402 7.338-2.2 4.115-2.27 4.505-1.417 7.828 1.105 4.305.286 6.198-2.961 6.846-1.271.254-2.132.752-1.912 1.107.219.354-.398 1.391-1.371 2.304-1.479 1.387-2.032 1.52-3.367.807-1.17-.626-1.464-1.268-1.102-2.408.415-1.304.27-1.462-.895-.975-4.995 2.084-6.168 1.008-4.388-4.028.857-2.426.932-3.486.302-4.245-.976-1.173-2.894-1.354-2.894-.271 0 .406-1.413 1.761-3.141 3.01-3.315 2.398-7.89 2.897-7.449.812.162-.763-.398-.912-2.235-.595-6.778 1.168-9.531 1.363-9.531.675 0-.405-1.037-.943-2.304-1.195-2.52-.504-4.776.68-4.776 2.505 0 .83-1.325 1.262-5.171 1.686-2.844.314-5.695 1.024-6.334 1.579-2.717 2.355-4.556 2.852-6.928 1.871-2.082-.861-2.398-.79-3.716.835-2.167 2.672-6.797 2.599-9.412-.15z"/>
                    <path d="M113.429 335.485c-.721-.42-1.597-.585-1.947-.37-.35.217-2.016-.878-3.702-2.432-2.081-1.918-3.31-2.582-3.825-2.068-.515.515-1.299.18-2.44-1.043-.924-.991-1.697-1.977-1.717-2.191-.16-1.69-1.365-3.737-2.201-3.737-.56 0-1.874-.325-2.92-.722l-1.9-.72 1.563-2.643c.859-1.454 2.245-3.121 3.08-3.705 1.442-1.008 1.459-1.187.337-3.5-1.28-2.638-.799-3.913 1.785-4.732.79-.25 1.93-1.639 2.536-3.086.777-1.854 1.44-2.5 2.25-2.19.632.242 2.458-.01 4.057-.56 2.052-.706 3.141-.768 3.7-.21.453.453.827.488.876.082.048-.388.164-1.041.26-1.45.095-.41.224-1.535.286-2.501.104-1.613.343-1.715 2.908-1.251 1.537.278 3.298 1.135 3.913 1.904 1.305 1.633 5.216 3.293 5.216 2.214 0-.392 1.497-2.271 3.326-4.177 3.282-3.42 3.35-3.449 5.216-2.228 1.04.68 1.891 1.59 1.891 2.023 0 .485.85.6 2.215.3 1.772-.388 2.6-.102 4.133 1.43 2.309 2.304 2.401 2.314 3.966.403 1.166-1.424 1.338-1.44 2.974-.288 1.278.9 1.621 1.68 1.301 2.953-.24.952-.085 1.947.343 2.21.428.265.592 1.066.365 1.782-.287.902.172 1.567 1.495 2.17 2.719 1.236 4.367 1.084 7.362-.68l2.628-1.548 4.488 2.765c6.64 4.092 6.79 4.424 3.417 7.51l-2.85 2.606 2.408 1.462c1.603.973 2.26 1.844 1.967 2.608-.243.63-.441 1.621-.441 2.201 0 .58-.422 1.056-.939 1.056-.516 0-1.357.67-1.87 1.488-.563.902-1.737 1.488-2.98 1.488-1.21 0-2.414.581-2.939 1.42-1.533 2.451-4.971 2.665-8.15.508-2.484-1.684-2.926-1.772-4.008-.795-1.566 1.415-2.722 1.393-3.54-.067-.59-1.05-.917-1.04-3.333.11-1.473.702-2.848 1.922-3.055 2.713-.525 2.002-3.55 1.452-4.697-.853-1.137-2.286-3.123-3.452-4.143-2.433-.516.515-1.72.42-3.748-.295-2.973-1.047-12.445-1.504-11.494-.555.274.274-.059 1.112-.74 1.863-1.02 1.127-1.084 1.7-.364 3.278 1.319 2.89.285 3.997-2.32 2.483zM288.488 395.622c-.389-.716-2.26-2.914-4.16-4.885-2.379-2.47-3.32-3.998-3.028-4.917.233-.734-.07-1.743-.673-2.242-.603-.5-1.475-2.054-1.937-3.453-.543-1.644-1.316-2.545-2.183-2.545-.737 0-1.762-.506-2.276-1.125-.671-.807-1.202-.904-1.877-.345-.671.556-2.064.353-4.86-.708-2.157-.818-4.218-1.303-4.583-1.078-1.164.718-2.731-1.237-2.672-3.333.034-1.2-1.28-4.116-3.218-7.143-1.802-2.814-3.2-5.373-3.107-5.686.245-.821-4.95-4.694-7.85-5.852-1.849-.74-2.675-.772-3.316-.133-.469.468-1.479.851-2.244.851-1.052 0-1.276.363-.919 1.488.588 1.85-1.881 2.938-7.824 3.448-8.943.767-10.48.58-12.43-1.52-1.681-1.81-1.758-2.192-.936-4.68.493-1.488 1.488-3.738 2.211-5 .994-1.73 1.26-3.566 1.086-7.5-.126-2.864-.344-5.55-.483-5.967-.28-.836.877-2.4 4.117-5.565 1.175-1.147 1.975-2.537 1.778-3.089-.197-.551-.057-1.588.312-2.305.42-.815.364-1.875-.152-2.837-.582-1.085-.591-1.815-.033-2.487.435-.523.599-1.142.364-1.376-.717-.717 1.165-3.53 2.361-3.53.639 0 1.03-.533.906-1.233-.143-.804.485-1.427 1.802-1.788 1.111-.305 3.561-1.593 5.445-2.862 4.141-2.79 5.627-2.573 10.11 1.477 3.707 3.35 4.257 3.464 6.85 1.428 1.704-1.338 2.271-1.403 5.575-.642 5.575 1.285 10.077.34 12.969-2.72 3.157-3.342 4.176-2.471 3.93 3.357-.103 2.457.118 4.656.491 4.887.397.244.342 1.049-.132 1.932-.659 1.23-.502 1.84.838 3.265.988 1.05 1.463 2.235 1.184 2.959-.274.715.297 2.203 1.404 3.651l1.867 2.445-1.869 3.338c-2.191 3.914-2.096 7.103.309 10.35.911 1.231 1.373 2.578 1.06 3.094-1.24 2.044-8.14 8.726-9.011 8.726-.515 0-.936.325-.936.72 0 .908 2.186.16 3.94-1.345 2.315-1.988 9.412-5.09 10.09-4.413.366.365 1.524.247 2.662-.271 1.817-.826 2.193-.725 3.817 1.023.99 1.067 2.398 2.133 3.128 2.369 1.263.408 3.75 6.155 4.307 9.95.138.941.573 2.113.966 2.605.394.492.97 1.719 1.28 2.726.31 1.007 1.358 2.455 2.327 3.216 2.181 1.713 2.27 3.929.202 5.034-1.286.687-1.478 1.279-1.09 3.35.377 2.004.18 2.698-.972 3.416-.795.496-1.287 1.314-1.093 1.818.194.503-.344 1.137-1.196 1.406-1.953.62-6.012 3.993-6.012 4.997 0 1.026-4.43 6.551-5.253 6.551-.36 0-.974-.586-1.363-1.302z"/>
                    <path d="M177.702 391.759c-1.896-2.938-2.935-6.721-2.005-7.296.86-.53-1.916-2.93-3.4-2.939-.421-.002-1.7-.491-2.844-1.087-2.015-1.049-2.165-.99-4.934 1.945-3.011 3.191-5.324 3.478-6.403.792-1.127-2.806-2.456-8.727-2.09-9.317.213-.344-.191-2.139-.898-3.986-1.014-2.652-1.11-3.745-.452-5.186 1.151-2.523 1.042-4.847-.318-6.786-.895-1.276-.967-1.984-.323-3.185.456-.85.612-2.53.347-3.733-.363-1.648-.211-2.188.616-2.188.603 0 1.288-.497 1.521-1.104a1.179 1.179 0 0 1 1.512-.686c.598.229 1.748.064 2.555-.368 2.586-1.381 7.086-1.577 8.905-.387 1.578 1.032 1.816.968 3.453-.933 1.387-1.609 1.589-2.313.955-3.326-1.143-1.828 1.753-4.476 7.032-6.43 3.642-1.349 4.576-1.433 7.217-.655 3.777 1.113 3.957 1.3 4.039 4.167.089 3.132.87 3.43 3.97 1.517 3.855-2.378 4.748-3.502 4.382-5.515-.18-.995.026-2.028.459-2.295.543-.335.516-.812-.085-1.535-1.407-1.692.41-3.167 3.733-3.029 3.426.142 7.099 3.212 5.972 4.99-2.412 3.807 1.207 5.273 6.318 2.56 4.076-2.164 4.432-2.21 5.899-.746 1.44 1.438 1.177 9.264-.393 11.672-.62.952-1.554 3.07-2.076 4.707-1.251 3.928-1.466 4.106-5.305 4.399-4.86.37-8.051 1.76-7.924 3.449.059.777.535 1.577 1.058 1.778.713.272.551 1.042-.643 3.062-.876 1.483-2.04 2.868-2.584 3.076-1.415.542-4.195 5.268-3.633 6.175.26.42-.04.96-.664 1.199-.626.24-1.342 1.08-1.593 1.868-.25.788-1.421 2.489-2.601 3.78-1.18 1.29-2.004 2.575-1.83 2.857.175.282-1.266 2.193-3.201 4.248-2.457 2.607-4.63 4.099-7.192 4.94-4.764 1.563-5.264 1.527-6.552-.47zM307.631 362.438c-4.57-8.43-10.185-15.456-14.095-17.64-1.066-.596-1.009-.97.532-3.458 1.41-2.277 1.567-3.047.856-4.183-.572-.915-.632-1.84-.174-2.695.383-.716.873-1.873 1.088-2.57.215-.698 1.687-1.93 3.271-2.736 5.09-2.593 5.234-3.27 1.61-7.592-2.217-2.643-2.983-4.096-2.503-4.745.382-.514 1.348-1.863 2.149-2.999l1.455-2.064-1.987-3.72c-1.456-2.726-1.799-4.07-1.283-5.032.544-1.016.3-1.576-1.08-2.479-.982-.642-2.013-2.206-2.293-3.475-.48-2.182-.582-2.242-1.87-1.079-1.275 1.153-1.429 1.121-2.448-.506-.598-.956-1.298-2.643-1.555-3.75-.848-3.657-5.352-6.046-16.51-8.76-3.202-.78-6.302-3.137-6.302-4.793 0-.55-.67-1.176-1.49-1.39-2.033-.53-1.87-2.504.486-5.9l1.976-2.847-1.73-1.84c-1.56-1.656-1.632-2.026-.728-3.713 2.047-3.818 8.403-4.96 10.642-1.911.792 1.079 6.042 4.523 6.894 4.523 1.033 0 3.653-6.828 3.71-9.672.103-5.111 1.153-11.1 2.043-11.65.438-.27 1.74.65 2.894 2.045 1.154 1.396 2.984 3.424 4.068 4.507 1.149 1.148 1.742 2.34 1.422 2.857-.326.528.51 1.992 2.063 3.61 2.81 2.93 5.05 6.836 5.36 9.347.444 3.586 1.974 7.732 3.293 8.924.808.73 1.258 1.87 1.05 2.662-.237.905.659 2.502 2.584 4.608 3.8 4.157 4.354 5.32 4.977 10.445.316 2.605 1.228 5.295 2.356 6.955 1.182 1.74 1.672 3.236 1.37 4.186-.304.958.063 2.046 1.041 3.09 3.292 3.508 3.859 7.623 1.647 11.955-.875 1.714-1.297 3.633-1.06 4.819.307 1.533-.1 2.41-1.836 3.954-2.943 2.619-4.3 8.563-3.067 13.447.574 2.28.608 3.808.103 4.75-.41.764-.577 2.265-.372 3.336.27 1.411-.058 2.248-1.191 3.04-1.25.875-1.468 1.572-1.088 3.472.361 1.802.113 2.774-1.028 4.019-.827.903-1.733 2.395-2.013 3.316-.701 2.309-1.74 2.095-3.237-.668z"/>
                    <path d="M153.201 349.288c-.356-1.418.162-3.225 1.886-6.58 2.083-4.056 2.267-4.869 1.485-6.58-1.075-2.358-.158-3.825 2.865-4.582 1.092-.274 2.438-1.143 2.992-1.933.569-.81 1.881-1.438 3.015-1.44 1.472-.004 2.502-.731 3.866-2.73 1.283-1.88 1.574-2.819.941-3.03-.505-.167-1.673-.916-2.597-1.663l-1.68-1.358 2.787-2.625c1.534-1.444 2.788-2.768 2.788-2.942 0-.174-2.096-1.59-4.657-3.146-2.562-1.556-4.787-2.933-4.945-3.058-.158-.126.269-1.076.949-2.112 1.454-2.216 3.823-2.43 6.438-.581 1.321.933 3.284 1.302 6.937 1.302 5.42 0 6.068.38 9.54 5.604l1.22 1.836 2.506-1.814c1.378-.998 2.944-2.42 3.48-3.162 1.15-1.593 4.288-1.786 5.137-.317.753 1.304 7.275 3.54 8.715 2.988.594-.228 1.86.016 2.815.541.954.525 2.74 1.02 3.97 1.099 9.34.6 17.458 5.784 15.381 9.821-.356.693-.484 1.719-.283 2.28.2.562-.499 1.901-1.553 2.976-3.88 3.957-4.602 4.963-4.602 6.42 0 .909-.419 1.396-1.077 1.253-.592-.129-2.801.637-4.909 1.702-3.132 1.582-4.195 1.798-5.817 1.182-2.006-.761-2.525-2.504-1.315-4.411 1.041-1.641-2.082-4.171-5.322-4.31-3.032-.13-4.137.742-2.87 2.267.442.53.555 1.215.251 1.52-.304.304-.594 1.277-.645 2.163-.05.885-.134 1.993-.186 2.462-.052.469-1.775 1.93-3.83 3.245-3.071 1.968-3.933 2.229-4.853 1.467-.615-.51-1.074-1.3-1.02-1.758.38-3.228-.14-3.981-3.246-4.683-5.599-1.266-15.331 3.37-13.436 6.4.58.929.277 1.786-1.304 3.677-1.965 2.35-2.144 2.411-3.819 1.316-1.881-1.23-6.338-1.059-8.967.346-.807.431-1.885.624-2.395.429s-1.324.281-1.81 1.059c-1.227 1.96-2.246 1.766-2.826-.54z"/>
                    <path d="M223.606 316.206c-3.175-1.644-7.522-2.84-11.178-3.075-1.23-.08-3.003-.566-3.94-1.083-.938-.516-2.28-.76-2.981-.542-.702.217-1.721.117-2.264-.224-.731-.459-.162-1.273 2.187-3.13 4.063-3.213 6.625-5.775 6.625-6.624 0-.367.589-1.105 1.308-1.64.719-.535 2.233-2.395 3.364-4.134 2.07-3.183 3.05-3.79 3.898-2.418.674 1.088 1.863.908 1.863-.281 0-.564.512-1.448 1.136-1.966.625-.518.96-1.118.743-1.334-.216-.216.165-1.243.847-2.282 1.219-1.857 1.84-4.217 1.884-7.157.039-2.638 1.408-5.362 3.078-6.125.895-.41 2.55-1.18 3.676-1.713 2.532-1.197 3.156-.627 3.213 2.937.026 1.561.725 3.743 1.59 4.96 2.09 2.94 4.7 7.645 4.7 8.471 0 .37-.406 1.615-.903 2.767-.496 1.152-.99 3.434-1.098 5.07-.531 8.078-.519 8.048-4.384 10.603-2.012 1.33-4.239 2.418-4.948 2.418-.862 0-1.141.385-.843 1.16.295.768-.073 1.296-1.09 1.561-1.576.412-2.675 2.159-2.022 3.214.202.325-.049.934-.557 1.35-.648.534-1.81.3-3.904-.783z"/>
                    <path d="M248.032 308.698c-1.704-1.586-4.163-3.194-5.465-3.573-2.053-.597-2.338-.98-2.14-2.882.124-1.206.305-3.532.401-5.17.096-1.636.581-3.918 1.077-5.07.497-1.152.903-2.397.903-2.767 0-.823-2.608-5.527-4.68-8.442-1.066-1.5-1.543-3.389-1.59-6.286-.063-4.05.004-4.19 3.086-6.355 2.868-2.016 3.27-2.112 4.472-1.078.726.625 2.439 1.677 3.806 2.337 2.272 1.096 2.642 1.098 4.289.02 1.419-.927 2.031-.988 2.878-.287 1.289 1.068 2.99 5.883 2.315 6.556-.458.457 2.165 2.092 6.476 4.035 1.127.508 2.05 1.453 2.05 2.1s.394 1.57.876 2.051c.672.671.561 1.224-.475 2.367-1.153 1.272-1.204 1.671-.342 2.707.87 1.047.779 1.402-.653 2.56-.914.739-2.077 1.537-2.584 1.774-.69.323-.652.551.154.913.592.265 1.87 1.275 2.843 2.246.972.97 2.04 1.595 2.375 1.389 1.102-.68 5.53 3.768 4.849 4.87-.343.553-.816 2.189-1.052 3.635-.39 2.402-.71 2.688-3.696 3.317-2.183.46-4.624.404-7.347-.166-3.688-.772-4.258-.713-5.949.614-2.59 2.034-3.337 1.88-6.877-1.415zM278.29 263.36c-1.544-.912-3.22-2.186-3.727-2.831-1.156-1.475-5.446-2.426-6.109-1.355-.268.433-.997.787-1.62.787-.867 0-1.02-.515-.652-2.188.287-1.308.086-2.88-.5-3.906-.54-.945-1.014-2.555-1.056-3.578-.04-1.023-.322-2.753-.624-3.846-.457-1.65-.212-2.206 1.452-3.295 1.659-1.085 2.256-1.15 3.49-.381 1.226.764 1.717.722 2.78-.239 1.434-1.295 6.776-1.576 8.823-.463.712.386 2.58.91 4.152 1.161l2.858.459-.583 3.86c-.32 2.123-.604 5.367-.629 7.208-.045 3.318-2.911 9.746-4.504 10.101-.41.092-2.008-.58-3.552-1.493zM-6.326 393.734c-.314-.56-2.23-1.43-4.255-1.934-3.47-.86-3.672-1.043-3.477-3.14.392-4.225.307-5.21-.644-7.433-.526-1.227-.977-3.062-1.005-4.076-.065-2.448-2.428-2.905-3.932-.761-.937 1.335-1.592 1.536-3.71 1.14-1.415-.265-3.03-.657-3.59-.872-.559-.214-1.793.541-2.741 1.678a89.664 89.664 0 0 1-3.355 3.768c-.897.936-2.073 2.628-2.615 3.76-1.21 2.528-3.555 2.966-7.04 1.314-1.434-.679-3.133-1.032-3.777-.786-1.589.61-4.687-1.527-4.687-3.23 0-1.658-1.22-2.769-3.73-3.396-1.332-.332-2.586.072-4.426 1.429-2.69 1.983-5.562 2.463-6.422 1.072-.28-.45-1.591-1.271-2.915-1.824-1.391-.58-2.893-2.006-3.56-3.38-1.089-2.245-1.053-2.554.635-5.574.983-1.758 1.788-3.371 1.788-3.585 0-.214-1.045-1.577-2.321-3.028-1.862-2.118-2.22-3.041-1.812-4.676.533-2.135 1.024-5.469 1.45-9.849.152-1.553-.188-3.11-.84-3.859-.602-.69-.846-1.656-.543-2.146.303-.49-.307-2.604-1.356-4.697-2.327-4.642-3.835-11.011-3.203-13.526.258-1.024 1.22-2.204 2.137-2.621 1.455-.662 1.669-1.324 1.669-5.169 0-5.7 1.263-7.268 4.498-5.584 1.201.626 2.762 1.14 3.469 1.142.707.002 1.788.976 2.404 2.164.941 1.818 1.729 2.244 4.979 2.69 3.01.413 4.741 1.246 7.86 3.782 5.67 4.61 7.052 4.8 10.26 1.403 2.051-2.171 2.994-2.67 4.389-2.32 1.233.31 2.185-.006 3.114-1.03 1.555-1.716 2.012-1.751 8.335-.652 4.34.754 4.83 1.031 5.76 3.257.56 1.338 1.402 2.67 1.87 2.958.469.29.665 1.114.436 1.834-.234.735.254 2.158 1.111 3.247.962 1.22 1.382 2.573 1.135 3.651-.526 2.289 2.618 5.87 4.931 5.616 1.316-.144 2.012.498 3.205 2.953.838 1.726 2.183 3.615 2.99 4.2.825.599 1.475 1.953 1.49 3.106.03 2.444 2.315 4.271 3.323 2.658.531-.85 1.06-.742 2.96.608 2.389 1.7 2.938 3.597 1.466 5.067-.632.63-.537 1.153.373 2.062.67.669 1.218 1.636 1.218 2.15 0 1.593-3.35 4.168-5.424 4.168-1.984 0-3.518 1.752-3.518 4.017 0 .627 1.006 2.283 2.236 3.682 1.23 1.398 2.235 2.835 2.235 3.194 0 .36.685 1.08 1.523 1.602 1.27.792 1.448 1.448 1.073 3.956-.271 1.815-.112 3.411.402 4.03 1.402 1.687.165 3.703-3.19 5.2-3.837 1.711-7.853 1.986-8.636.59zM94.627 251.175c-1.418-1.146-1.567-1.604-.818-2.505.73-.88.707-1.276-.116-1.958-.568-.47-1.516-.67-2.106-.445-1.404.538-3.894-2.234-3.328-3.705.261-.68.033-1.144-.564-1.144-.551 0-1.41-.49-1.909-1.09-1.29-1.552 1.76-5.85 3.712-5.231 1.66.525 2.814-1.042 1.407-1.91-1.232-.76-1.567-5.171-.492-6.48.428-.52 1.334-.77 2.013-.555 1.334.422 3.04-3.167 3.53-7.426.142-1.227.303-2.567.36-2.976.055-.409-1.289-2.818-2.987-5.353-2.704-4.038-2.993-4.858-2.324-6.613.942-2.474.38-3.151-1.595-1.92-1.523.95-4.39.55-4.39-.61 0-.349.84-2.303 1.866-4.344 1.027-2.04 1.675-4.21 1.44-4.822-.564-1.466.96-2.358 2.23-1.306.78.647 1.332.266 2.517-1.74 1.745-2.953 1.717-4.253-.14-6.301-1.262-1.393-1.263-1.554-.02-3.446.993-1.514 1.746-1.901 3.17-1.63 2.628.502 4.194-1.174 2.952-3.16-1.042-1.665-.47-2.558 2.143-3.345 1.31-.395 1.999.057 3.54 2.32 1.052 1.547 1.938 2.65 1.968 2.453.03-.197.19-1.078.356-1.958.166-.88-.343-4.542-1.13-8.138-.787-3.597-1.258-6.819-1.047-7.16.212-.342-.05-1.6-.58-2.796-.789-1.78-1.711-2.359-5.084-3.191-3.712-.916-4.098-1.198-3.89-2.83.127-.998.295-3.26.373-5.027.183-4.162 2.076-5.49 4.536-3.182 1.984 1.861 3.842 2.011 4.476.362.368-.958 1.016-1.082 3.247-.621 1.532.317 3.96.604 5.395.64 2.344.056 2.58.25 2.336 1.923-.15 1.023-.28 3.504-.292 5.513-.017 3.192.274 3.896 2.301 5.58 1.717 1.425 2.454 2.797 2.832 5.274.298 1.946 1.087 3.756 1.884 4.32.754.535 1.372 1.404 1.372 1.931 0 .527.631 1.53 1.403 2.227.771.697 1.977 2.768 2.679 4.602 1.164 3.044 1.173 3.49.106 5.116-.955 1.455-1.014 2.234-.32 4.255.466 1.36 1.051 2.64 1.301 2.845 1.174.962 3.028 4.565 3.028 5.884 0 .809.714 2.679 1.586 4.155l1.586 2.683-1.586 1.685c-.872.927-1.586 2.543-1.586 3.592 0 3.044-2.33 12.505-3.08 12.505-1.529 0-2.995 7.525-3.024 15.515-.004 1.123-.736 2.17-2.04 2.917-1.12.641-2.541 2.046-3.16 3.122-1.007 1.753-1.002 2.14.049 3.72.882 1.327.945 1.841.252 2.072-.506.168-.92.907-.92 1.642 0 .795-.945 1.726-2.336 2.301-1.986.822-2.46.8-3.167-.147-.997-1.335-5.06-1.39-5.9-.08-.327.512-1.043.93-1.59.93-.547 0-1.545.837-2.216 1.86-1.375 2.096-3.247 2.436-3.91.71-.373-.967-.611-.908-1.51.373-1.326 1.89-2.559 1.921-4.789.118z"/>
                    <path d="M82.55 237.833c-1.092-.857-2.63-2.82-3.417-4.362-.788-1.542-3.126-4.323-5.196-6.181-2.07-1.858-3.763-3.685-3.763-4.06 0-.85-6.362-6.611-7.989-7.235-.737-.282-1.982.293-3.24 1.497-1.594 1.525-2.43 1.826-3.792 1.366-.96-.324-3.611-.497-5.89-.384-3.165.157-4.392-.092-5.193-1.056-.926-1.114-.804-1.471 1.043-3.057 1.917-1.647 2.021-1.993 1.256-4.185-.706-2.022-.637-2.534.45-3.327.705-.516 2.11-.938 3.12-.938 1.768 0 1.788-.052.529-1.44-.718-.793-1.109-1.761-.867-2.151.241-.39-.374-1.242-1.367-1.891l-1.806-1.182 1.735-3.258c1.965-3.689 1.544-5.273-1.217-4.58-1.223.306-2.175.069-2.815-.702-.532-.64-1.463-1.164-2.068-1.164-1.626 0-6.297 2.259-8.224 3.977-1.649 1.471-1.762 1.475-5.885.177-2.769-.871-5.379-2.42-7.65-4.541-1.895-1.77-4.364-3.45-5.486-3.73-2.304-.578-3.164-1.505-2.038-2.2 1.063-.655.944-1.867-.184-1.867-.518 0-1.272.754-1.677 1.674-1.05 2.392-2.774 2.067-3.481-.657-.333-1.283-1.445-2.88-2.47-3.551-1.025-.671-1.864-1.714-1.864-2.319 0-1.387-.771-1.384-3.455.013-2.864 1.491-6.454 1.41-8.435-.19-1.393-1.127-1.51-1.606-.828-3.397 1.32-3.463 1.049-4.446-1.077-3.913-1.81.454-1.862.365-1.575-2.71.164-1.747.539-3.763.834-4.48.451-1.095.118-1.301-2.108-1.301-3.685 0-3.982-1.087-1.175-4.3 3.684-4.22 5.003-4.44 7.872-1.312 2.757 3.004 3.26 3.14 4.92 1.334l3.112-3.382c1.053-1.144 1.915-2.359 1.915-2.7 0-.34.54-1.066 1.202-1.614 1.038-.86 1.5-.662 3.399 1.46 1.764 1.97 2.103 2.882 1.72 4.624-.53 2.408.653 2.995 1.75.868.802-1.555.639-8.429-.234-9.838-1.05-1.697-1.228-6.074-.292-7.2.612-.736 1.597-.916 3.152-.574l2.263.496-1.268-1.932c-1.23-1.874-1.213-1.966.574-3.135 1.691-1.106 2.228-1.108 6.573-.02 2.602.652 5.632 1.185 6.732 1.185 1.283 0 2.002.4 2.002 1.116 0 .613.26 1.116.58 1.116.818 0 8.546 5.804 9.671 7.265.79 1.025.587 1.532-1.299 3.251-4.078 3.72-.269 6.188 6.178 4.003 3.378-1.145 5.548-1.035 9.588.486 1.374.517 3.28.482 6.158-.115 3.714-.77 4.432-.709 6.581.555 1.327.78 3.002 1.282 3.723 1.115.72-.167 2.506.09 3.969.572 2.394.79 2.836.71 4.438-.793 1.919-1.799 2.08-4.95.358-7.02-1.423-1.713-.347-3.612 1.75-3.086 1.924.482 3.856-1.123 4.306-3.576.4-2.175 4.411-3.048 5.883-1.28.632.76 1.812 1.734 2.622 2.167 1.185.633 1.45 1.489 1.353 4.387-.066 1.98-.347 4.295-.625 5.144-.45 1.377-.057 1.644 3.635 2.47 3.584.8 4.302 1.263 5.337 3.44.658 1.384 1.017 2.804.799 3.157-.218.352.247 3.583 1.035 7.18 1.49 6.813 1.532 8.85.206 10.174-.556.555-1.281-.006-2.451-1.896-1.335-2.156-1.977-2.588-3.262-2.194-2.282.7-2.402.937-1.335 2.643 1.345 2.148-.726 4.448-3.516 3.905-1.468-.285-2.214.024-2.948 1.223-.842 1.376-.795 1.812.334 3.057 1.925 2.124 1.883 3.459-.212 6.772-1.378 2.18-2.094 2.745-2.705 2.135-1.224-1.221-2.252-1.009-1.727.357.25.653-.397 2.882-1.44 4.955-2.185 4.343-1.616 5.948 1.516 4.274 2.532-1.352 3.692-.242 2.639 2.524-.677 1.778-.398 2.577 2.318 6.63 1.698 2.536 3.046 4.945 2.995 5.354-.609 4.94-.92 6.346-1.937 8.732-.917 2.155-1.559 2.741-2.854 2.604-1.44-.151-1.676.183-1.707 2.428-.02 1.49.446 2.968 1.09 3.454.953.718.97 1.036.117 2.062-.558.672-1.583 1.032-2.295.806-.844-.267-1.713.24-2.52 1.471-1.497 2.28-1.937 2.312-4.473.32z"/>
                    <path d="M-22.09 173.371c-1.245-.461-3.218-1.592-4.385-2.513-1.167-.92-2.411-1.674-2.766-1.674-1.27 0-.613-2.15 1.064-3.48 2.994-2.375 6.52-8.095 5.572-9.04-.619-.62-.535-1.18.324-2.156.679-.772 1.047-2.246.889-3.552-.737-6.059-.858-5.717 2.452-6.936 2.224-.82 3.255-1.685 3.59-3.014.613-2.44 4.674-7.534 6.006-7.534 2.02 0 2.002 3.4-.04 7.424-1.084 2.137-1.853 4.003-1.708 4.147.145.145 1.429-1.311 2.852-3.236 1.762-2.381 3.218-3.572 4.559-3.727 1.35-.157 2.626-1.21 4.054-3.348 4.153-6.218 4.619-6.535 8.816-6.01 4.264.532 10.855 3.07 10.855 4.178 0 .402-.527.53-1.172.283-.644-.247-1.818-.104-2.608.318-1.345.719-1.36.884-.238 2.594 1.344 2.047.722 2.59-2.69 2.346-1.642-.117-1.873.176-1.953 2.471-.05 1.433.254 3.268.677 4.079 1.356 2.6 1.248 9.184-.18 10.945-1.677 2.067-3.251 1.139-2.656-1.565.314-1.429-.018-2.612-1.129-4.022-1.828-2.32-2.811-2.517-3.48-.695-.263.716-1.087 1.972-1.832 2.79-3.5 3.848-5.373 5.58-6.036 5.58-.397 0-1.805-1.18-3.13-2.624-1.753-1.911-2.777-2.483-3.764-2.105-1.396.535-5.519 4.7-5.558 5.614-.012.283 1.236.617 2.773.744 2.31.191 2.757.489 2.576 1.72-.12.818-.363 2.745-.538 4.281-.222 1.936-1.12 3.594-2.924 5.394-1.432 1.43-2.923 2.6-3.313 2.6-.39 0-1.156.127-1.702.281-.546.155-2.011-.097-3.256-.558zM75.582 154.015c-.966-.387-2.643-.636-3.726-.555-1.083.081-2.874-.446-3.98-1.171-1.77-1.16-2.515-1.214-6.208-.449-2.902.602-4.812.639-6.187.121-4.04-1.521-6.21-1.631-9.588-.486-4.047 1.372-7.348.877-8.501-1.274-.684-1.275-.46-1.833 1.422-3.55 1.228-1.12 2.015-2.38 1.749-2.8-.604-.951-6.827-5.705-8.961-6.846-.871-.465-1.584-1.199-1.584-1.63 0-1.17 3.94-5.115 5.108-5.115.686 0 .828-.42.44-1.302-.315-.717-.721-2.556-.903-4.089-.285-2.41.023-3.139 2.282-5.394 1.603-1.6 3.337-2.607 4.488-2.607 1.033 0 2.4-.201 3.04-.446 1.628-.624 4.278-5.117 3.781-6.41-.226-.59-.103-3.04.275-5.444.48-3.05.434-4.778-.15-5.711-.595-.951-.609-1.7-.048-2.588 1.566-2.478 2.944-2.77 5.23-1.109 1.192.866 4.011 1.885 6.266 2.265 2.254.38 5.943 1.422 8.197 2.316 5.199 2.062 11.064 3.714 13.228 3.726 1.146.006 1.677-.433 1.677-1.388 0-2.253 1.928-3.304 5.247-2.86 2.35.315 3.435.055 5.025-1.205 1.116-.883 2.699-1.972 3.517-2.42a79.823 79.823 0 0 0 3.068-1.793c1.373-.85 1.886-.762 3.902.671 1.975 1.404 2.274 2.024 2.002 4.148-.22 1.716.016 2.626.755 2.909.592.227 1.076 1.139 1.076 2.027 0 .889.505 1.987 1.123 2.442 1.768 1.3 5.639 10.004 4.705 10.58-.514.317-.627 2.146-.318 5.16.298 2.9.163 5.365-.356 6.502-.688 1.506-.534 2.475.867 5.46 1.612 3.432 2.491 8.397 1.51 8.52-.248.032-1.023.167-1.722.302-.7.134-2.67-.11-4.378-.543-2.646-.67-3.21-.605-3.797.443-.939 1.675-3.078 1.546-4.738-.285-.754-.833-1.837-1.336-2.405-1.118-1.26.483-3.885-.787-5.396-2.612-1.413-1.708-5.216-1.17-5.216.738 0 2.026-3.134 4.522-5.05 4.022-1.82-.476-2.306 1.027-.815 2.515 1.693 1.691 1.394 4.947-.652 7.083-2.112 2.206-2.614 2.324-5.3 1.25zM183.015 310.252c-2.534-3.59-4.941-4.6-8.895-3.734-1.707.375-3.252.045-5.823-1.243-3.125-1.565-3.589-2.128-4.345-5.28-.465-1.94-1.414-4.722-2.108-6.183-1.219-2.564-1.208-2.73.322-4.796l1.585-2.14-1.52-.482c-1.7-.539-1.669-2.48.054-3.39 5.45-2.88 5.864-2.927 9.338-1.083 1.818.965 3.855 2.303 4.526 2.974 1.621 1.618 3.59 1.16 3.886-.903.25-1.745 2.727-3.905 4.479-3.905.567 0 1.671-.813 2.454-1.806 2.299-2.918 5.941-3.745 10.229-2.324 1.984.658 4.162.984 4.84.724.817-.313 1.963.307 3.396 1.839 2.415 2.58 3.428 2.865 4.088 1.148.246-.64.746-.98 1.11-.754.365.225 1.553-.29 2.64-1.143 1.33-1.045 2.56-1.406 3.761-1.105.983.246 2.63.127 3.662-.265 1.605-.609 2.138-.402 3.684 1.432 1.34 1.59 2.024 1.928 2.647 1.306 1.332-1.33 2.857.533 1.638 2-.51.613-.707 1.47-.438 1.905.269.435-.2 1.904-1.044 3.266-.843 1.362-1.361 2.648-1.152 2.857.21.209-.13.803-.755 1.321-.625.518-1.136 1.361-1.136 1.875s-.503 1.35-1.118 1.86c-.892.74-1.346.737-2.254-.015-.624-.518-1.25-.81-1.39-.65-.14.162-1.142 1.716-2.227 3.455s-2.303 3.162-2.708 3.162c-.405 0-.74.418-.744.93-.009 1.037-3.24 4.235-7.95 7.868-3.016 2.327-3.212 2.373-6.235 1.452-1.717-.523-3.286-1.369-3.487-1.88-.417-1.063-3.186-1.281-3.186-.25 0 .75-5.892 5.272-6.87 5.272-.337 0-1.666-1.492-2.954-3.315z"/>
                    <path d="M176.37 284.69c-.752-.716-2.345-1.82-3.54-2.455-1.948-1.032-2.154-1.488-1.991-4.393.1-1.782-.106-3.607-.456-4.055-1.287-1.644-1.664-5.037-.69-6.218.853-1.033.706-1.097-1.272-.555-1.23.337-3.074.644-4.099.681-2.872.106-2.91-2.797-.07-5.446 2.842-2.65 4.027-5.484 2.81-6.716-.674-.684-.332-1.377 1.485-3.007 1.3-1.165 2.198-2.282 1.998-2.482-.789-.787 1.595-6.639 3.226-7.92.951-.747 1.73-1.618 1.73-1.937 0-.318.535-1.168 1.189-1.89 1.09-1.202 1.079-1.496-.133-3.545-.727-1.228-2.074-2.422-2.995-2.652-3.108-.78-6.095-3.93-5.975-6.305.116-2.304 5.102-7.95 6.344-7.184.989.61 2.468-1.536 2.653-3.852.09-1.128.608-3.055 1.15-4.283.543-1.228.93-2.601.86-3.053-.222-1.432 2.126-6.295 3.247-6.724.592-.227 2.258-2.054 3.701-4.06 2.537-3.525 4.863-4.765 4.863-2.592 0 1.815 5.04 4.326 9.125 4.546 2.958.16 4.088.587 5.104 1.931.717.95 1.165 1.951.995 2.226-.17.275.188 1.907.796 3.627 1.047 2.965 1.03 3.146-.353 3.507-1.549.404-2.654 2.69-1.894 3.918.25.404.105 1.388-.322 2.185-1.132 2.111-.241 3.631 2.447 4.177 6.46 1.31 10.398 3.4 9.722 5.158-.492 1.28 4.092 3.35 6.424 2.901 1.42-.273 2.465.263 4.393 2.253 2.331 2.408 2.46 2.778 1.643 4.747-.628 1.513-.665 2.716-.128 4.125.67 1.76.506 2.176-1.405 3.586-2.422 1.788-2.553 3.427-.568 7.118.977 1.818 1.103 2.833.536 4.323-.408 1.07-1.049 1.757-1.425 1.525-1-.618-1.462 1.238-.683 2.75.42.816.363 1.876-.155 2.843-.578 1.078-.598 2.193-.067 3.715.652 1.866.545 2.29-.754 2.984-.833.444-1.317 1.005-1.076 1.246.24.24-.1 1.03-.758 1.756s-1.04 1.758-.847 2.293c.191.535.035 1.58-.348 2.323-.533 1.033-1.208 1.237-2.876.872-1.593-.35-2.704-.066-4.134 1.058-1.076.844-2.217 1.375-2.535 1.178-.32-.197-.772.143-1.007.754-.667 1.735-2.195 1.32-4.409-1.199-1.357-1.544-2.44-2.154-3.263-1.839-.678.26-2.855-.066-4.839-.724-4.198-1.392-8.052-.578-9.93 2.098-.607.866-2.197 1.929-3.532 2.361-1.472.477-2.537 1.373-2.704 2.275-.627 3.385-2.876 4.268-5.208 2.046zM263.09 279.77c-.978-.732-2.693-1.726-3.812-2.209-1.272-.548-1.883-1.272-1.63-1.93.464-1.207-1.539-6.433-2.466-6.433-.34 0-1.336.503-2.215 1.118-1.459 1.02-1.878.956-4.823-.733-1.775-1.017-4.172-2.272-5.327-2.788-1.606-.716-2.026-1.335-1.78-2.62.186-.968-.267-2.359-1.066-3.279-1.88-2.164-1.744-4.057.45-6.247 1.01-1.008 1.664-2.28 1.455-2.825-.225-.586 1.232-2.217 3.566-3.991 5.472-4.159 7.086-4.882 11.642-5.216 3.386-.248 4.22-.037 5.658 1.428 1.95 1.986 3.537 6.113 2.944 7.656-.224.583.125 1.82.777 2.748 1.552 2.213 1.496 3.22-.394 7.119l-1.579 3.255 1.692 1.798 1.692 1.798-1.977 2.848c-2.21 3.184-2.552 5.371-.84 5.371.914 0 2.59 2.68 2.59 4.14 0 .84-2.97.182-4.557-1.007z"/>
                    <path d="M232.033 250.297c-.405-.511-.927-2.429-1.16-4.262-.235-1.832-.805-3.458-1.267-3.612-1.583-.526-2.365-3.969-1.42-6.248.799-1.924.684-2.34-1.181-4.284-1.594-1.66-2.683-2.13-4.763-2.05-3.026.115-7.071-2.12-6.505-3.593.586-1.525-2.67-3.11-9.053-4.408-2.946-.599-4.309-2.695-3.153-4.852.443-.827.613-1.816.376-2.198-.72-1.164.454-4.482 1.586-4.482.585 0 1.875-.531 2.867-1.18.993-.65 2.142-.973 2.554-.718.793.49 3.787-4.716 3.787-6.585 0-.606.329-1.304.73-1.552 1.124-.693 3.74 1.004 3.753 2.435.006.701.318 1.76.693 2.352.566.892.918.785 2.064-.628l1.382-1.703 2.829 1.666c1.555.916 3.115 2.42 3.466 3.342.4 1.05 1.281 1.69 2.362 1.714.949.02 2.898.222 4.333.448 1.434.225 3.782.525 5.216.667 1.435.143 4.04.99 5.79 1.883 2.59 1.322 3.055 1.861 2.504 2.903-.874 1.649-.54 7.459.487 8.484.435.434.626 1.216.425 1.739-.2.522-.007 1.171.431 1.441 1.434.885.84 1.853-1.812 2.96-1.435.598-2.608 1.376-2.608 1.73 0 .352-2.238 2.462-4.972 4.687-7.85 6.389-7.697 6.176-7.697 10.742 0 4.04-.607 4.978-2.044 3.162zM137.958 235.479c-3.57-1.832-6.506-4.56-5.735-5.33.257-.256.136-1.082-.268-1.836-.494-.92-.452-2.492.128-4.79.781-3.1.712-3.623-.748-5.593-1.563-2.111-1.577-2.315-.474-7.062.625-2.69 1.136-5.767 1.136-6.84 0-1.074.713-2.71 1.585-3.638l1.586-1.685-1.586-2.683c-.872-1.476-1.585-3.386-1.585-4.245 0-.858-.783-2.597-1.74-3.863-2.86-3.787-3.65-6.928-2.27-9.03 1.068-1.627 1.059-2.073-.106-5.117-.701-1.834-1.907-3.905-2.679-4.602-.771-.697-1.403-1.638-1.403-2.09 0-.452-.624-1.21-1.387-1.686-.902-.563-1.556-2.143-1.873-4.528-.386-2.908-.861-3.834-2.302-4.49-2.121-.965-3.796-6.014-2.99-9.015.969-3.61.336-8.507-1.615-12.488-1.713-3.496-1.829-4.202-1.008-6.18.51-1.228.726-3.235.48-4.46-.46-2.303.197-2.679 4.13-2.363.692.056 1.47-.56 1.727-1.37.565-1.779 1.345-1.84 3.71-.293 2.341 1.531 4.251.868 6.69-2.323 1.958-2.565 3.38-3.307 3.38-1.764 0 1.54 4.105 6.547 5.702 6.955 1.126.287 2.33-.27 4.047-1.87 1.764-1.646 2.873-2.145 3.986-1.798.849.266 2.616.551 3.928.636 2.786.179 2.46-.153 4.494 4.566 2.78 6.446 3.368 9.05 2.436 10.788-.619 1.154-.619 2.22 0 4.092.622 1.88.619 2.938-.012 4.113-.466.87-.613 2.143-.327 2.827.49 1.17 1.23 12.236 1.201 17.984-.007 1.432.307 4.249.699 6.26.65 3.34.54 3.913-1.27 6.645l-1.982 2.99 1.762 1.423c1.25 1.01 1.697 2.039 1.54 3.538-.311 2.957 1.147 5.55 2.492 4.436.732-.606 1.436-.62 2.502-.05 2.07 1.105 3.828.23 3.828-1.904 0-1.273.6-2.034 2.05-2.6 2.874-1.123 8.98-1.493 9.546-.578.26.42 1.278 1.07 2.263 1.443.985.374 1.79 1.107 1.79 1.628 0 .522 1.179 1.887 2.618 3.033l2.617 2.085-2.315 3.36c-1.273 1.848-2.799 3.545-3.39 3.771-1.121.43-3.364 5.052-3.143 6.479.07.451-.317 1.825-.86 3.052-.542 1.228-1.06 3.168-1.152 4.312-.172 2.173-2.364 5.204-3.332 4.607-1.034-.638-6.015 4.546-5.544 5.77.524 1.365-3.115 5.027-4.995 5.027-.69 0-2.294.873-3.564 1.94s-3.224 1.988-4.342 2.046c-1.118.059-2.704.826-3.524 1.706-2.379 2.554-10.146 2.902-14.532.652z"/>
                    <path d="M250.636 226.892c-.518-.624-.73-1.346-.47-1.606.26-.259.092-.929-.373-1.488-1.046-1.258-1.436-6.884-.588-8.486.48-.91-.01-1.49-2.132-2.517-1.516-.733-3.93-1.457-5.364-1.607-1.435-.15-3.782-.451-5.217-.669-1.435-.217-3.437-.468-4.45-.558-1.079-.096-2.2-.884-2.711-1.906-.479-.96-1.973-2.413-3.32-3.231l-2.45-1.487-1.369 1.742c-1.342 1.71-1.39 1.716-2.477.299-.61-.794-1.108-2.014-1.108-2.71 0-.697-.53-1.47-1.18-1.718-1.689-.648-1.8-.595-1.813.85-.019 1.932-3.33 7.285-4.368 7.058-.493-.108-1.557.157-2.364.588-1.251.668-1.586.478-2.268-1.292-.44-1.142-.876-2.746-.969-3.564-.37-3.27-1.573-4.232-5.566-4.447-3.855-.208-9.79-3.176-9.79-4.896 0-.421-.42-.67-.932-.553-1.27.29-6.52-3.795-6.52-5.072a1.03 1.03 0 0 0-1.027-1.028c-2.909 0-4.331-5.992-1.837-7.736.79-.552 1.363-1.297 1.274-1.656-.089-.358.205-1.489.653-2.512.448-1.023 1.002-2.454 1.232-3.18.313-.99.886-1.203 2.296-.85 1.97.494 2.459-.302 1.05-1.708-1.182-1.18-.057-2.591 1.638-2.054 1.154.366 1.392.123 1.241-1.272-.107-.984.184-1.654.676-1.56 2.312.437 9.67-2.223 11.102-4.014 2.011-2.514 7.007-3.128 7.582-.93.207.787.53 1.432.718 1.432.566 0 8.791-6.458 9.856-7.738 1.426-1.716 3.601-1.466 4.205.484.285.921 1.477 2.511 2.649 3.534 1.172 1.023 2.554 3.185 3.071 4.805.688 2.152 1.443 3.059 2.805 3.37 1.053.24 2.354 1.385 2.994 2.635.622 1.215 1.455 2.712 1.853 3.326.397.614 1.23 2.607 1.85 4.43.952 2.798 1.793 3.698 5.41 5.797 2.505 1.453 4.767 3.42 5.451 4.741 1.068 2.062 1.063 2.419-.055 4.122-1.198 1.826-1.161 1.922 1.815 4.665 3.14 2.894 3.532 3.72 2.34 4.926-.435.442.264 1.75 1.864 3.486 3.173 3.444 3.225 2.5.221-4.007-1.88-4.073-2.162-5.28-1.435-6.153.724-.872.592-1.507-.667-3.207-2.029-2.74-2.301-6.05-.589-7.16 1.7-1.1 3.522-.014 5.084 3.031.644 1.257 2.114 3.094 3.267 4.084 1.798 1.544 1.976 2.026 1.251 3.378-1.197 2.234-1.089 2.76 1.107 5.366 1.856 2.201 1.89 2.388.679 3.724-.877.966-1.104 1.945-.728 3.127.848 2.668 1.044 7.99.31 8.443-.362.224-.479.873-.26 1.443.236.613-.464 1.569-1.709 2.335-1.16.714-3.648 2.915-5.531 4.891-3.698 3.882-4.46 4.2-5.907 2.46z"/>
                    <path d="M159.403 190.195c-.672-1.024-1.114-2.804-.981-3.955.17-1.48-.282-2.546-1.538-3.631l-1.778-1.537 1.982-2.991c1.813-2.734 1.922-3.307 1.272-6.648-.392-2.01-.706-4.827-.699-6.26.028-5.747-.71-16.814-1.2-17.983-.287-.684-.14-1.956.326-2.827.63-1.175.634-2.233.012-4.113-.61-1.845-.615-2.946-.018-4.059.897-1.673-.259-6.692-2.567-11.148-1.943-3.752-1.39-4.122 6.374-4.276 8.933-.177 10.973-.46 13.724-1.9 3.703-1.94 8.805-7.063 8.312-8.347-.717-1.866.16-3.126 4.41-6.329 2.213-1.668 4.507-3.968 5.1-5.11.91-1.758 1.512-2.062 3.922-1.98 1.567.054 3.795.37 4.952.7 1.267.362 2.814.28 3.886-.209 1.122-.51 1.946-.545 2.225-.094.243.394 1.074.716 1.845.716 2 0 2.566 1.342 1.448 3.428-.86 1.605-.76 2.016.935 3.835 2.205 2.365 2.559 6.706.663 8.14-1.066.806-1.015 1.19.511 3.896l1.694 3.002-1.918 2.893c-2.658 4.01-2.003 6.33 2.248 7.95 2.987 1.139 3.33 1.135 5.147-.053 1.915-1.253 2-1.23 5.297 1.467 1.843 1.508 3.351 2.844 3.351 2.969s-.701 1.81-1.558 3.744c-.857 1.934-1.371 4.228-1.144 5.098.552 2.104-2.533 8.617-4.1 8.656-.667.017-1.658.566-2.202 1.22-.544.655-2.932 2.683-5.308 4.508-4.135 3.176-5.809 3.577-5.809 1.388 0-1.837-5.176-.83-6.974 1.358-1.58 1.923-9.568 4.661-11.006 3.774-.357-.22-.565.373-.463 1.317.15 1.382-.142 1.683-1.491 1.54-1.823-.192-2.154.52-.848 1.824 1.278 1.275-.013 2.625-2.028 2.12-1.392-.35-1.782-.15-1.782.913 0 .748-.466 1.996-1.035 2.773-.57.777-.879 1.82-.687 2.317.19.498-.366 1.285-1.237 1.75-.996.533-1.439 1.314-1.193 2.104.637 2.042-.678 3.249-3.762 3.453-5.172.343-6.99 1.14-6.99 3.066 0 2.297-2.417 3.647-4.52 2.524-1.13-.604-1.808-.597-2.558.024-.798.66-1.287.44-2.242-1.017z"/>
                    <path d="M137.882 124.084c-.721-.285-2.44-2.104-3.821-4.043l-2.51-3.525-1.954 2.557c-2.486 3.254-4.452 3.889-6.96 2.249-1.855-1.214-2-1.21-2.958.1-.63.859-2.123 1.45-3.974 1.574-2.92.196-2.967.158-2.967-2.35 0-1.401.325-2.748.723-2.993.906-.56-2.842-8.578-4.635-9.915-.718-.534-1.304-1.581-1.304-2.326 0-.746-.484-1.756-1.076-2.246-.648-.538-.962-1.784-.79-3.141.218-1.72-.188-2.672-1.72-4.037l-2.004-1.785 2.148-1.91c1.838-1.633 2.58-1.835 5.142-1.403 2.565.433 2.929.333 2.534-.693-.696-1.811 2.437-3.553 5.345-2.972 1.912.382 2.288.258 1.944-.638-.263-.683.49-1.88 1.95-3.109 1.873-1.573 2.845-1.895 4.578-1.515 1.68.369 2.434.148 3.196-.94.549-.78 2.372-2.371 4.051-3.534l3.055-2.113 1.784 1.674c1.436 1.347 2.26 1.57 4.221 1.14 1.34-.294 2.989-1.216 3.664-2.048 1.08-1.333 1.521-1.412 3.672-.664 1.345.468 2.716.683 3.048.478.332-.204 1.479.026 2.547.512 1.712.778 2.083.686 3.11-.778.944-1.346 1.612-1.571 3.515-1.187 1.292.261 2.865 1.067 3.496 1.791.63.724 2.978 1.887 5.216 2.584 2.239.698 4.653 1.585 5.364 1.972 2.067 1.125 3.863.823 4.893-.823.675-1.08 1.403-1.387 2.478-1.046 1.028.326 2.09-.05 3.269-1.156 1.432-1.343 2.125-1.514 3.849-.952 1.156.377 2.434 1.418 2.838 2.312.405.894 1.335 1.626 2.066 1.626 1.504 0 7.723 5.438 8.373 7.322.234.679 1.956 2.357 3.826 3.73 2.373 1.74 3.164 2.73 2.619 3.275-.525.524-.54 1.233-.046 2.155.601 1.12.465 1.374-.736 1.374-.81 0-1.672-.323-1.916-.716-.279-.451-1.103-.416-2.224.094-1.073.488-2.62.571-3.886.209-1.158-.331-3.337-.645-4.843-.698-2.144-.076-2.9.255-3.478 1.523-.407.89-2.36 2.902-4.341 4.471-4.75 3.762-5.56 4.807-5.024 6.49.33 1.037-.506 2.296-3.164 4.767-4.12 3.831-7.104 5.557-10.318 5.97-3.788.487-21.52.369-23.174-.154-1.153-.365-2.163.106-3.855 1.795-2.402 2.398-2.712 2.505-4.836 1.666z"/>
                    <path d="M242.968 264.59c-.588-.117-1.65-.318-2.36-.446-2.123-.384-3.091-.578-3.322-.665-.184-.07-.229-.163-.282-.584-.041-.33-.028-.541.039-.621.076-.092.074-.166-.009-.298-.1-.159-.009-.282.937-1.274.576-.604 1.1-1.198 1.164-1.32.065-.123.223-.752.35-1.398.13-.647.414-1.744.634-2.44.22-.695.4-1.356.4-1.47 0-.149.05-.205.185-.205.102 0 .874.337 1.715.75.84.412 1.637.777 1.77.809.304.074.352.14.594.818l.197.555-.223.379c-.123.208-.465.617-.761.91-.296.291-.539.568-.539.613 0 .046.072.02.159-.06.138-.125.185-.127.378-.017.445.253.588.286 1.156.26.318-.013.789.015 1.046.064.415.078.468.113.468.31 0 .452-.2 1.504-.31 1.633-.233.272-.498.903-.618 1.474-.067.324-.163.628-.212.677-.107.107-.405-.032-.744-.347l-.236-.22-.308.335-.307.335.339.185c.186.101.528.302.76.446.23.144.624.329.872.41.468.152.623.369.345.483-.088.036-.621.08-1.184.098-.82.027-1.238-.01-2.093-.18zM233.65 272.137c-.037-.038-.067-.162-.067-.277 0-.115-.08-.497-.178-.85-.098-.353-.178-.723-.178-.822 0-.098.19-.565.423-1.037.347-.704.506-.922.889-1.223.256-.202.533-.469.615-.594.14-.213.14-.258-.003-.71-.146-.464-.145-.497.02-.871.21-.471.428-.548 1.33-.465.374.034.823.251.823.398 0 .042-.084.182-.187.312-.127.161-.16.272-.101.346.047.06.088.168.092.242.004.073.026.285.048.47.035.281.007.36-.17.475a.608.608 0 0 1-.47.08c-.234-.051-.27-.028-.36.228-.14.4-.134.415.19.482.355.074.943.403 1.173.657.168.186.168.19-.023.393a.77.77 0 0 0-.192.448c0 .19-.059.264-.266.336-.204.07-.288.174-.36.437-.05.189-.066.446-.035.57a.573.573 0 0 1-.089.448c-.169.257-.497.3-.499.066 0-.125-.017-.131-.08-.03-.143.224-2.187.653-2.345.49zM227.321 270.28c-.15-.166-.145-.187.11-.512.463-.587.452-.63-.303-1.258l-.677-.562-.197.185c-.282.265-.364.234-.623-.227-.282-.504-.285-.567-.026-.567.112 0 .359-.078.548-.175.19-.096.538-.24.775-.318.415-.138.789-.475.789-.712 0-.215.467-.67.924-.9.251-.127.546-.3.655-.386.14-.108.45-.174 1.04-.218.584-.043.856-.1.888-.185.08-.209.92-.583 1.17-.52.193.048.22.028.2-.151-.02-.186.026-.215.455-.286.813-.133.933.26.294.964-.135.148-.413.32-.62.382-.206.061-.375.132-.375.157 0 .025.06.161.134.303.124.24.118.286-.093.683a3.649 3.649 0 0 1-.416.627l-.189.2-.407-.227-.407-.227-.15.185c-.083.102-.24.454-.348.784-.312.949-.568 1.385-.978 1.668a2.542 2.542 0 0 0-.593.604c-.162.256-.363.41-.788.602a8.722 8.722 0 0 1-.603.259c-.018 0-.103-.078-.189-.173z" stroke-linecap="round"/>
                    <path d="M239.784 268.055c-.207-.057-.393-.203-.555-.434-.133-.192-.478-.53-.765-.753a4.035 4.035 0 0 1-.915-1.031 12.609 12.609 0 0 0-.602-.888c-.264-.328-.195-.425.557-.78.304-.143.6-.318.659-.389.092-.111.263-.102 1.287.072.65.11 1.822.332 2.605.494 1.195.246 1.622.294 2.646.297.862.003 1.252-.028 1.331-.107a.418.418 0 0 1 .253-.111c.203 0 .949.78.843.88-.047.045-.406.19-.798.323-1.08.366-1.049.34-.978.85.059.428.055.437-.174.437-.202 0-.231.033-.21.237.023.205-.05.286-.532.589l-.559.351-.343-.237c-.247-.171-.406-.222-.566-.182-.158.04-.364-.024-.709-.218-.267-.15-.55-.274-.628-.274-.078 0-.29.18-.47.399-.214.261-.438.43-.651.488-.179.05-.345.087-.37.082a12.299 12.299 0 0 1-.356-.095z" stroke-linecap="round"/>
                    <path d="M237.313 268.845a2.541 2.541 0 0 0-.787-.405c-.478-.12-.53-.217-.348-.651.125-.3.16-.324.4-.271.424.093.621-.067.573-.464a9.792 9.792 0 0 1-.048-.468.502.502 0 0 0-.093-.242c-.058-.074-.025-.185.101-.346.103-.13.187-.27.187-.31 0-.125-.363-.276-.747-.312-.496-.046-.503-.046-.843.02-.284.054-.237.055-.234-.155.011-.811.45-.888 1.276-.662.588.161.713.268 1.173 1.042.202.339.512.744.688.901.813.722 1.27 1.205 1.27 1.341 0 .168-.335.323-.696.323-.194 0-.274.072-.421.378-.156.323-.227.382-.49.406-.17.016-.346.066-.393.112-.117.114-.133.107-.568-.237zM225.395 267.25a1.041 1.041 0 0 1-.054-.312c0-.093-.05-.171-.11-.173-.062 0-.238-.111-.393-.244-.34-.294-.674-1.187-.467-1.25.068-.02.43-.352.802-.737.66-.682.684-.698.952-.605.351.123.683-.03 1.349-.62l.484-.429.434.311.434.312.261-.193c.237-.175.28-.18.462-.061.11.072.479.236.818.363.34.128.73.312.867.41.237.168.243.189.113.387-.122.186-.23.216-.98.272-.591.044-.902.11-1.042.218-.109.086-.405.26-.657.387-.456.23-.833.6-.833.82 0 .237-.462.653-.88.791a6.755 6.755 0 0 0-.773.318c-.415.212-.713.225-.787.035z" stroke-linecap="round"/>
                    <path d="M224.016 264.846c-.076-.254-.137-.51-.137-.568 0-.059-.068-.317-.15-.573-.14-.432-.141-.495-.007-.877.08-.226.208-.692.285-1.034.077-.342.18-.702.226-.8.048-.098.225-.592.395-1.098.169-.506.329-.941.354-.967.1-.099.329.072.565.42.574.846.998 1.304 1.357 1.466.364.163.38.164.68.002l.307-.165.317.304c.175.168.393.45.485.63.145.28.266.361.891.6.398.151.755.256.794.232.038-.023.114-.218.168-.433.102-.403.679-1.036.945-1.036.072 0 .272.125.446.277l.315.276-.268.305c-.232.264-.268.374-.268.821 0 .569-.05.641-.671.982l-.36.197-.486-.19a5.178 5.178 0 0 1-.687-.32c-.182-.117-.226-.11-.462.063l-.261.193-.434-.311-.434-.312-.485.43c-.664.588-.998.742-1.346.62-.264-.091-.291-.074-.955.616-.376.39-.75.71-.833.71-.103 0-.192-.143-.286-.46zM229.883 274.344c-.177-.177-.218-.307-.218-.694 0-.39.058-.572.32-1.004.495-.816 1.051-1.968 1.33-2.751.178-.506.363-.833.637-1.13.211-.23.385-.48.385-.554 0-.297.387-1.295.502-1.295.145 0 .154-.168.027-.503-.118-.308.02-.43.577-.514.359-.054.39-.08.437-.376.029-.176.14-.49.252-.654.152-.358.167-.388.895-.335.435-.056.678.041.678.088 0 .046-.126.474-.3.868l-.316.717.155.489c.15.477.15.495-.027.732-.1.134-.38.404-.626.6-.357.285-.526.522-.86 1.207-.228.468-.415.929-.415 1.024 0 .095.08.461.178.814.098.353.179.725.179.825 0 .183-.37.574-.624.66-.14.049-.174.551-.05.752.095.152-.22.472-.414.422-.3-.078-.583.132-.571.424.014.353-.176.385-.595.101-.181-.122-.33-.196-.33-.163s-.047.012-.106-.047c-.157-.157-.24-.13-.189.06.032.123-.034.207-.245.312-.375.187-.407.183-.666-.075z" stroke-linecap="round"/>
                    <path d="M236.477 264.653c-.244-.064-.59-.05-.772-.064-.198-.017-.378-.002-.445-.05-.07-.048-.258-.19-.428-.3-.411-.267-.734-.75-.66-.99.07-.232.68-1.095 1.277-1.808.538-.642.848-1.077 1.664-2.334.334-.514.888-1.314 1.231-1.778.745-1.007 1.582-2.283 1.883-2.868.209-.407.392-.55.392-.305 0 .064-.18.686-.4 1.381-.22.695-.504 1.793-.633 2.44-.128.646-.286 1.274-.35 1.397-.065.122-.589.716-1.164 1.32-.946.992-1.037 1.115-.937 1.274.082.132.084.207.009.298-.067.08-.08.29-.04.61l.06.488.659.155c.362.086.658.182.658.214 0 .113-.32.347-.67.492-.195.08-.474.235-.621.344-.25.187-.295.192-.713.084zM227.173 273.85c-.313-.23-.423-.369-.423-.537a.997.997 0 0 0-.09-.396c-.128-.24.081-.886.287-.886.157 0 .264-.29.382-1.037.068-.437.196-.565.832-.835.337-.143.537-.3.686-.535.116-.183.39-.46.608-.617.41-.295.66-.74.99-1.761.084-.26.24-.573.345-.695l.192-.223.409.228c.391.219.415.222.553.069.08-.088.246-.35.37-.583.21-.394.216-.44.092-.68-.18-.346-.18-.346.183-.497.334-.14 1.74-.371 1.74-.266 0 .033-.091.26-.193.397a1.568 1.568 0 0 0-.233.612c-.048.355-.058.364-.466.42-.602.082-.644.124-.523.517.091.297.082.35-.089.508-.173.161-.464.925-.464 1.218 0 .067-.173.31-.385.54-.274.298-.457.623-.636 1.13a15.575 15.575 0 0 1-.74 1.645l-.753 1.437c-.224.426-.31.511-.568.56-.168.03-.568.175-.89.32-.323.143-.633.26-.69.26-.056-.002-.293-.142-.526-.313z" stroke-linecap="round"/>
                    <path d="M234.035 262.685a22.07 22.07 0 0 1-.593-.439c-.279-.214-.34-.232-.433-.12-.091.11-.159.085-.456-.17l-.348-.297-.023-.901c-.013-.496-.013-.902 0-.902s.39.267.836.594c.715.522.834.58.988.484.151-.094.234-.064.61.222.239.182.412.367.385.41-.027.045.021.132.107.194.143.105.126.153-.225.617-.209.276-.425.501-.48.5-.056-.002-.221-.088-.368-.192z" stroke-linecap="round"/>
                    <path d="M233.019 264.73c0-.027.114-.204.232-.315.28-.263.464-.698.345-.817-.053-.053-.275-.064-.544-.029-.395.053-.453.086-.436.25.016.157-.025.186-.237.17-.141-.01-.411.061-.601.158l-.344.175-.357-.236c-.196-.13-.357-.26-.357-.29 0-.03.19-.155.423-.277l.423-.223.045-.598c.038-.518.08-.635.315-.87l.271-.27.365.312c.307.262.382.292.47.186.088-.106.177-.071.557.216.37.28.61.429.939.585.012.006-.04.135-.116.287-.122.244-.123.307-.01.526.157.303.363.482.76.683.164.083.15.097.294.23-.539-.042-1.954.064-2.437.148zM230.272 261.537c-.485-.273-1.05-.752-1.11-.942a.517.517 0 0 1 .038-.347c.08-.149.04-.213-.28-.448-.205-.15-.42-.274-.477-.274-.316 0-1.34-1.465-1.242-1.775.063-.198.979-.982 1.145-.98.172.002 1.103.871 1.395 1.302.261.387.267.416.13.624-.135.207-.13.234.086.518.27.352.688.667.888.667.078 0 .292-.136.476-.302l.334-.301.304.253c.29.242.306.285.345.964.058.987.01 1.075-.385.728-.173-.151-.38-.275-.46-.275-.08 0-.31.171-.512.381l-.366.381-.309-.174z" stroke-linecap="round"/>
                    <path d="M229.466 262.227c-.552-.214-.732-.33-.847-.544a4.016 4.016 0 0 0-.47-.63l-.324-.358-.314.169c-.308.165-.322.165-.685.002-.374-.169-.908-.736-1.37-1.455-.137-.214-.324-.408-.416-.432-.092-.024-.194-.129-.227-.233-.033-.105-.225-.385-.426-.624-.362-.429-.366-.44-.344-1.077.02-.574-.008-.701-.255-1.163l-.277-.52.191-.154c.142-.114.177-.213.136-.376-.048-.19 0-.257.327-.463l.382-.24.227.267c.125.147.355.332.51.411.156.08.495.384.754.677.394.447.513.531.74.52.15-.008.33.002.403.023.09.026.175-.089.27-.37.075-.224.246-.537.38-.696.133-.158.243-.347.243-.418 0-.147.767-.923.912-.923.051 0 .328.085.614.189.36.131.558.261.642.422.066.128.197.366.29.528l.169.295-.3.254c-.165.14-.405.28-.533.312-.128.032-.518.19-.866.35-.622.287-.845.524-.664.705.128.128.115.234-.03.234-.182 0-1.018.692-1.082.896-.096.302.853 1.683 1.157 1.683.06 0 .295.141.521.313.377.287.403.331.312.53-.16.351.056.59 1.116 1.24.217.134.246.196.2.429-.055.272-.204.516-.31.506-.03-.003-.37-.129-.756-.279z" stroke-linecap="round"/>
                    <path d="M232.584 260.159a49.173 49.173 0 0 1-.766-.572l-.232-.18-.256.266c-.367.382-.602.415-.97.134a3.44 3.44 0 0 1-.54-.538c-.22-.287-.224-.314-.088-.521.136-.207.131-.237-.086-.562-.126-.189-.488-.586-.805-.883-.894-.837-.806-1.063.626-1.61.343-.13.755-.334.917-.452.239-.174.318-.194.426-.104.17.14.362-.091.447-.54.032-.17.12-.382.197-.469.127-.146.108-.188-.251-.554-.214-.217-.372-.41-.35-.43.021-.018.13-.08.24-.138.16-.084.2-.18.2-.49 0-.235-.053-.43-.134-.497-.194-.16-.164-.339.064-.372.146-.02.218-.116.277-.368.058-.242.145-.364.308-.426.249-.094.258-.091.776.237.196.124.426.248.512.276.192.063.202.372.025.793a1.127 1.127 0 0 0-.076.581c.03.148-.01.496-.089.774a9.01 9.01 0 0 0-.192.83c-.028.178-.13.424-.226.546-.096.122-.22.436-.275.698-.056.262-.14.55-.187.64-.06.114-.04.336.064.72l.15.554-.237.468-.237.468.2.293.202.293.355-.126c.403-.142.609-.047.411.19-.101.123-.06.2.3.564l.416.423-.251.24c-.138.132-.27.239-.29.238-.023-.002-.281-.179-.575-.394z" stroke-linecap="round"/>
                    <path d="M235.036 261.732c-.094-.07-.148-.162-.12-.206.026-.044-.125-.213-.336-.374-.334-.255-.409-.28-.563-.184-.152.095-.223.075-.505-.14l-.329-.25.231-.23.231-.231-.414-.42c-.356-.36-.399-.441-.299-.561.175-.21.07-.24-.333-.099l-.362.128-.237-.34-.236-.34.238-.469.238-.468-.15-.555c-.105-.383-.124-.605-.065-.718.047-.09.13-.376.186-.635.054-.258.18-.579.279-.712.098-.134.216-.462.26-.73.044-.269.125-.603.179-.744.054-.14.093-.44.086-.667a3.275 3.275 0 0 1 .117-.845c.124-.42.146-.442.688-.645.309-.116.646-.21.75-.21.237 0 3.053 1.196 4.799 2.037 1.038.5 1.314.67 1.314.81 0 .096-.033.176-.073.176-.04 0-.143.148-.23.33-.226.472-1.153 1.886-1.883 2.87-.345.465-.9 1.266-1.233 1.78-.856 1.319-1.235 1.848-1.675 2.34-.35.391-.399.417-.553.302zM212.763 253.04h1v1h-1z" stroke-linecap="round"/>
                    <path d="M226.96 256.251c-.595-.367-.81-1.16-.519-1.917.285-.74-.104-2.306-.913-3.675-1.188-2.01-1.466-3.894-.951-6.443.052-.26.682-.668 1.4-.909.716-.24 1.874-.853 2.572-1.362 1.674-1.222 1.985-.796 2.58 3.537.276 2.01.966 4.118 1.533 4.684.568.567.93 1.742.806 2.612-.175 1.225-.692 1.546-2.3 1.427-1.14-.084-1.898.13-1.684.474.624 1.009-1.397 2.268-2.524 1.572zM225.108 278.093c-1.071-1.396-2.123-2.026-2.999-1.797-1.065.278-1.352-.091-1.363-1.756-.008-1.16.537-2.73 1.211-3.489.674-.759 1.116-1.596.982-1.86-.135-.264.227-.777.803-1.14 1.22-.768 4.474 1.612 3.766 2.755-.242.392.335 1.298 1.283 2.012 1.58 1.19 1.644 1.492.772 3.593-1.55 3.739-2.578 4.126-4.455 1.682z"/>
                </g>
                <path d="M162 63.719C162 55.589 168.67 49 176.899 49c8.23 0 14.9 6.59 14.9 14.719a14.6 14.6 0 0 1-.614 4.19c-2.122 8.474-14.352 17.953-14.352 17.953s-13.818-10.702-14.631-19.534l.036-.007a14.48 14.48 0 0 1-.238-2.602m14.696 3.278c3.367 0 6.096-2.697 6.096-6.022 0-3.326-2.73-6.022-6.096-6.022-3.365 0-6.094 2.696-6.094 6.022 0 3.325 2.729 6.022 6.094 6.022" fill="#0D3150"/>
            </g>
        </g>
        <g transform="translate(126 116)">
            <path d="M0 14.719C0 6.589 6.67 0 14.899 0c8.23 0 14.9 6.59 14.9 14.719a14.6 14.6 0 0 1-.614 4.19c-2.122 8.474-14.352 17.953-14.352 17.953S1.015 26.16.202 17.328l.036-.007A14.48 14.48 0 0 1 0 14.719m14.696 3.278c3.367 0 6.096-2.697 6.096-6.022 0-3.326-2.73-6.022-6.096-6.022-3.365 0-6.094 2.696-6.094 6.022 0 3.325 2.729 6.022 6.094 6.022" fill="#FCC0C1" fill-rule="nonzero"/>
            <rect fill="#FCC0C1" x="35" y="12" width="75" height="16" rx="8"/>
            <text font-family="SourceSansPro-Bold, Source Sans Pro" font-size="12" font-weight="bold" fill="#FFF">
                <tspan x="41" y="24">Ballymoney</tspan>
            </text>
        </g>
        <g transform="translate(201 59)">
            <rect fill="#0D3150" width="158" height="16" rx="8"/>
            <path d="M11.188 12.144c-.496 0-.964-.086-1.404-.258a3.299 3.299 0 0 1-1.158-.762A3.584 3.584 0 0 1 7.84 9.87c-.192-.5-.288-1.078-.288-1.734 0-.648.1-1.226.3-1.734.2-.508.468-.938.804-1.29.336-.352.728-.62 1.176-.804a3.69 3.69 0 0 1 1.416-.276c.504 0 .956.102 1.356.306.4.204.732.442.996.714l-.936 1.128c-.2-.184-.41-.334-.63-.45a1.583 1.583 0 0 0-.75-.174c-.264 0-.514.058-.75.174-.236.116-.44.282-.612.498-.172.216-.308.48-.408.792-.1.312-.15.664-.15 1.056 0 .808.172 1.434.516 1.878.344.444.804.666 1.38.666.32 0 .606-.07.858-.21.252-.14.474-.314.666-.522l.936 1.104c-.656.768-1.5 1.152-2.532 1.152zm5.076 0c-.272 0-.518-.046-.738-.138a1.58 1.58 0 0 1-.558-.384 1.777 1.777 0 0 1-.354-.57 1.937 1.937 0 0 1-.126-.708c0-.624.264-1.112.792-1.464.528-.352 1.38-.588 2.556-.708-.016-.264-.094-.474-.234-.63-.14-.156-.374-.234-.702-.234-.256 0-.51.048-.762.144a5.538 5.538 0 0 0-.81.396l-.636-1.164a6.24 6.24 0 0 1 1.206-.564c.42-.144.866-.216 1.338-.216.768 0 1.354.218 1.758.654.404.436.606 1.114.606 2.034V12h-1.44l-.12-.612h-.048a3.808 3.808 0 0 1-.804.546c-.28.14-.588.21-.924.21zm.6-1.368a.97.97 0 0 0 .516-.132c.144-.088.296-.212.456-.372V9.228c-.624.088-1.056.216-1.296.384s-.36.368-.36.6c0 .192.062.334.186.426.124.092.29.138.498.138zm5.976 1.368c-.392 0-.794-.076-1.206-.228a3.719 3.719 0 0 1-1.074-.6l.792-1.104c.272.208.532.364.78.468.248.104.5.156.756.156.264 0 .456-.044.576-.132a.434.434 0 0 0 .18-.372.377.377 0 0 0-.102-.258 1.04 1.04 0 0 0-.276-.21 2.719 2.719 0 0 0-.39-.174 9.183 9.183 0 0 1-.444-.174 5.625 5.625 0 0 1-.552-.252 2.335 2.335 0 0 1-.504-.354 1.736 1.736 0 0 1-.372-.492 1.42 1.42 0 0 1-.144-.654c0-.272.054-.524.162-.756.108-.232.262-.428.462-.588.2-.16.44-.286.72-.378.28-.092.592-.138.936-.138.456 0 .856.078 1.2.234.344.156.644.33.9.522l-.792 1.056a3.119 3.119 0 0 0-.636-.372 1.59 1.59 0 0 0-.624-.132c-.448 0-.672.156-.672.468 0 .096.032.178.096.246s.15.13.258.186c.108.056.232.11.372.162l.438.162c.192.072.382.154.57.246.188.092.36.206.516.342.156.136.282.302.378.498.096.196.144.43.144.702 0 .272-.052.524-.156.756-.104.232-.26.434-.468.606a2.337 2.337 0 0 1-.768.408c-.304.1-.656.15-1.056.15zm5.616 0c-.368 0-.682-.056-.942-.168a1.65 1.65 0 0 1-.636-.468 1.904 1.904 0 0 1-.36-.726 3.64 3.64 0 0 1-.114-.942V7.428h-.816V6.12l.912-.072.204-1.584h1.464v1.584h1.428v1.38h-1.428v2.388c0 .336.07.578.21.726.14.148.326.222.558.222.096 0 .194-.012.294-.036.1-.024.19-.052.27-.084l.276 1.284c-.16.048-.348.096-.564.144a3.515 3.515 0 0 1-.756.072zm3.924 0c-.304 0-.56-.048-.768-.144a1.24 1.24 0 0 1-.498-.402 1.707 1.707 0 0 1-.27-.624 3.685 3.685 0 0 1-.084-.822V3.588h1.764v6.636c0 .184.034.312.102.384.068.072.138.108.21.108h.102a.386.386 0 0 0 .114-.024L33.268 12c-.096.04-.218.074-.366.102a2.841 2.841 0 0 1-.522.042zm4.476 0c-.424 0-.82-.07-1.188-.21a2.738 2.738 0 0 1-.96-.612 2.799 2.799 0 0 1-.636-.978 3.566 3.566 0 0 1-.228-1.32c0-.48.08-.914.24-1.302.16-.388.37-.716.63-.984s.558-.474.894-.618a2.624 2.624 0 0 1 1.044-.216c.424 0 .794.072 1.11.216.316.144.58.344.792.6.212.256.37.558.474.906.104.348.156.726.156 1.134a4.133 4.133 0 0 1-.072.78h-3.564c.08.432.258.75.534.954.276.204.614.306 1.014.306.424 0 .852-.132 1.284-.396l.588 1.068a3.91 3.91 0 0 1-1.014.492c-.372.12-.738.18-1.098.18zm-1.32-3.768h2.148c0-.336-.076-.608-.228-.816-.152-.208-.408-.312-.768-.312-.28 0-.526.092-.738.276-.212.184-.35.468-.414.852zm10.68 3.768c-.496 0-.964-.086-1.404-.258a3.299 3.299 0 0 1-1.158-.762 3.584 3.584 0 0 1-.786-1.254c-.192-.5-.288-1.078-.288-1.734 0-.648.1-1.226.3-1.734.2-.508.468-.938.804-1.29.336-.352.728-.62 1.176-.804a3.69 3.69 0 0 1 1.416-.276c.504 0 .956.102 1.356.306.4.204.732.442.996.714l-.936 1.128c-.2-.184-.41-.334-.63-.45a1.583 1.583 0 0 0-.75-.174c-.264 0-.514.058-.75.174-.236.116-.44.282-.612.498-.172.216-.308.48-.408.792-.1.312-.15.664-.15 1.056 0 .808.172 1.434.516 1.878.344.444.804.666 1.38.666.32 0 .606-.07.858-.21.252-.14.474-.314.666-.522l.936 1.104c-.656.768-1.5 1.152-2.532 1.152zm6.132 0c-.376 0-.74-.07-1.092-.21a2.77 2.77 0 0 1-1.572-1.584c-.16-.388-.24-.83-.24-1.326 0-.496.08-.938.24-1.326a2.77 2.77 0 0 1 1.572-1.584 2.93 2.93 0 0 1 2.178 0A2.786 2.786 0 0 1 55 7.698c.16.388.24.83.24 1.326 0 .496-.08.938-.24 1.326a2.786 2.786 0 0 1-1.566 1.584c-.348.14-.71.21-1.086.21zm0-1.428c.36 0 .632-.152.816-.456.184-.304.276-.716.276-1.236s-.092-.932-.276-1.236a.895.895 0 0 0-.816-.456c-.368 0-.642.152-.822.456-.18.304-.27.716-.27 1.236s.09.932.27 1.236c.18.304.454.456.822.456zm5.892 1.428c-.648 0-1.118-.212-1.41-.636-.292-.424-.438-1.012-.438-1.764V6.048h1.764v3.468c0 .432.06.728.18.888.12.16.308.24.564.24a.976.976 0 0 0 .564-.156c.152-.104.316-.272.492-.504V6.048h1.764V12h-1.44l-.132-.828h-.036c-.256.304-.53.542-.822.714-.292.172-.642.258-1.05.258zM63.268 12V6.048h1.44l.12.756h.048a4.8 4.8 0 0 1 .84-.63c.304-.18.66-.27 1.068-.27.648 0 1.118.212 1.41.636.292.424.438 1.012.438 1.764V12h-1.764V8.532c0-.432-.058-.728-.174-.888-.116-.16-.302-.24-.558-.24-.224 0-.416.05-.576.15-.16.1-.336.242-.528.426V12h-1.764zm8.616.144c-.392 0-.794-.076-1.206-.228a3.719 3.719 0 0 1-1.074-.6l.792-1.104c.272.208.532.364.78.468.248.104.5.156.756.156.264 0 .456-.044.576-.132a.434.434 0 0 0 .18-.372.377.377 0 0 0-.102-.258 1.04 1.04 0 0 0-.276-.21 2.719 2.719 0 0 0-.39-.174 9.183 9.183 0 0 1-.444-.174 5.625 5.625 0 0 1-.552-.252 2.335 2.335 0 0 1-.504-.354 1.736 1.736 0 0 1-.372-.492 1.42 1.42 0 0 1-.144-.654c0-.272.054-.524.162-.756.108-.232.262-.428.462-.588.2-.16.44-.286.72-.378.28-.092.592-.138.936-.138.456 0 .856.078 1.2.234.344.156.644.33.9.522l-.792 1.056a3.119 3.119 0 0 0-.636-.372 1.59 1.59 0 0 0-.624-.132c-.448 0-.672.156-.672.468 0 .096.032.178.096.246s.15.13.258.186c.108.056.232.11.372.162l.438.162c.192.072.382.154.57.246.188.092.36.206.516.342.156.136.282.302.378.498.096.196.144.43.144.702 0 .272-.052.524-.156.756-.104.232-.26.434-.468.606a2.337 2.337 0 0 1-.768.408c-.304.1-.656.15-1.056.15zm6.228 0c-.424 0-.82-.07-1.188-.21a2.738 2.738 0 0 1-.96-.612 2.799 2.799 0 0 1-.636-.978 3.566 3.566 0 0 1-.228-1.32c0-.48.08-.914.24-1.302.16-.388.37-.716.63-.984s.558-.474.894-.618a2.624 2.624 0 0 1 1.044-.216c.424 0 .794.072 1.11.216.316.144.58.344.792.6.212.256.37.558.474.906.104.348.156.726.156 1.134a4.133 4.133 0 0 1-.072.78h-3.564c.08.432.258.75.534.954.276.204.614.306 1.014.306.424 0 .852-.132 1.284-.396l.588 1.068a3.91 3.91 0 0 1-1.014.492c-.372.12-.738.18-1.098.18zm-1.32-3.768h2.148c0-.336-.076-.608-.228-.816-.152-.208-.408-.312-.768-.312-.28 0-.526.092-.738.276-.212.184-.35.468-.414.852zm6.492 3.768c-.304 0-.56-.048-.768-.144a1.24 1.24 0 0 1-.498-.402 1.707 1.707 0 0 1-.27-.624 3.685 3.685 0 0 1-.084-.822V3.588h1.764v6.636c0 .184.034.312.102.384.068.072.138.108.21.108h.102a.386.386 0 0 0 .114-.024L84.172 12c-.096.04-.218.074-.366.102a2.841 2.841 0 0 1-.522.042zm3.432 0c-.304 0-.56-.048-.768-.144a1.24 1.24 0 0 1-.498-.402 1.707 1.707 0 0 1-.27-.624 3.685 3.685 0 0 1-.084-.822V3.588h1.764v6.636c0 .184.034.312.102.384.068.072.138.108.21.108h.102a.386.386 0 0 0 .114-.024L87.604 12c-.096.04-.218.074-.366.102a2.841 2.841 0 0 1-.522.042zM88.528 12V6.048h1.764V12h-1.764zm.876-6.828c-.296 0-.54-.086-.732-.258a.853.853 0 0 1-.288-.666c0-.272.096-.492.288-.66.192-.168.436-.252.732-.252.304 0 .55.084.738.252a.843.843 0 0 1 .282.66.862.862 0 0 1-.282.666c-.188.172-.434.258-.738.258zM91.84 12V6.048h1.44l.12.756h.048a4.8 4.8 0 0 1 .84-.63c.304-.18.66-.27 1.068-.27.648 0 1.118.212 1.41.636.292.424.438 1.012.438 1.764V12H95.44V8.532c0-.432-.058-.728-.174-.888-.116-.16-.302-.24-.558-.24-.224 0-.416.05-.576.15-.16.1-.336.242-.528.426V12H91.84zm8.988 2.532a4.99 4.99 0 0 1-.978-.09c-.3-.06-.564-.15-.792-.27a1.421 1.421 0 0 1-.534-.468 1.204 1.204 0 0 1-.192-.684c0-.48.284-.88.852-1.2v-.048a1.335 1.335 0 0 1-.396-.396c-.104-.16-.156-.364-.156-.612 0-.216.064-.422.192-.618s.288-.362.48-.498V9.6a2.012 2.012 0 0 1-.558-.618 1.746 1.746 0 0 1-.246-.93c0-.36.068-.674.204-.942.136-.268.318-.492.546-.672.228-.18.49-.314.786-.402.296-.088.604-.132.924-.132.352 0 .66.048.924.144h2.172v1.284h-.948c.056.088.102.2.138.336.036.136.054.284.054.444 0 .344-.06.642-.18.894a1.7 1.7 0 0 1-.498.624c-.212.164-.46.286-.744.366-.284.08-.59.12-.918.12a2.34 2.34 0 0 1-.72-.12.602.602 0 0 0-.168.192.566.566 0 0 0-.048.252c0 .152.066.264.198.336.132.072.366.108.702.108h.96c.736 0 1.298.118 1.686.354.388.236.582.622.582 1.158 0 .312-.078.598-.234.858a2.09 2.09 0 0 1-.666.672 3.57 3.57 0 0 1-1.044.444 5.4 5.4 0 0 1-1.38.162zm.132-5.484a.77.77 0 0 0 .582-.246c.156-.164.234-.414.234-.75 0-.312-.078-.55-.234-.714a.77.77 0 0 0-.582-.246.78.78 0 0 0-.582.24c-.156.16-.234.4-.234.72 0 .336.078.586.234.75a.77.77 0 0 0 .582.246zm.144 4.38c.4 0 .728-.07.984-.21.256-.14.384-.314.384-.522 0-.184-.078-.308-.234-.372-.156-.064-.382-.096-.678-.096h-.612c-.208 0-.376-.006-.504-.018a2.274 2.274 0 0 1-.336-.054c-.216.192-.324.388-.324.588 0 .224.12.394.36.51.24.116.56.174.96.174zm8.94-1.284a4.38 4.38 0 0 1-1.53-.282 3.995 3.995 0 0 1-1.362-.846l1.008-1.212c.28.24.59.436.93.588.34.152.674.228 1.002.228.368 0 .642-.068.822-.204.18-.136.27-.32.27-.552a.602.602 0 0 0-.078-.312.744.744 0 0 0-.228-.234c-.1-.068-.22-.132-.36-.192l-.462-.198-1.02-.432c-.2-.08-.394-.184-.582-.312a2.57 2.57 0 0 1-.504-.45 2.033 2.033 0 0 1-.486-1.374c0-.32.068-.622.204-.906a2.25 2.25 0 0 1 .576-.744 2.75 2.75 0 0 1 .882-.498c.34-.12.714-.18 1.122-.18.456 0 .906.088 1.35.264.444.176.834.432 1.17.768l-.9 1.116a3.406 3.406 0 0 0-.768-.462 2.17 2.17 0 0 0-.852-.162c-.304 0-.546.062-.726.186a.598.598 0 0 0-.27.522c0 .12.03.222.09.306a.88.88 0 0 0 .252.228c.108.068.234.132.378.192l.468.198 1.008.408c.48.192.858.456 1.134.792.276.336.414.78.414 1.332a2.232 2.232 0 0 1-.774 1.698 2.87 2.87 0 0 1-.93.528 3.68 3.68 0 0 1-1.248.198zm6.804 0c-.424 0-.82-.07-1.188-.21a2.738 2.738 0 0 1-.96-.612 2.799 2.799 0 0 1-.636-.978 3.566 3.566 0 0 1-.228-1.32c0-.48.08-.914.24-1.302.16-.388.37-.716.63-.984s.558-.474.894-.618a2.624 2.624 0 0 1 1.044-.216c.424 0 .794.072 1.11.216.316.144.58.344.792.6.212.256.37.558.474.906.104.348.156.726.156 1.134a4.133 4.133 0 0 1-.072.78h-3.564c.08.432.258.75.534.954.276.204.614.306 1.014.306.424 0 .852-.132 1.284-.396l.588 1.068a3.91 3.91 0 0 1-1.014.492c-.372.12-.738.18-1.098.18zm-1.32-3.768h2.148c0-.336-.076-.608-.228-.816-.152-.208-.408-.312-.768-.312-.28 0-.526.092-.738.276-.212.184-.35.468-.414.852zM120.4 12V6.048h1.44l.12 1.044h.048c.216-.408.476-.708.78-.9.304-.192.608-.288.912-.288.168 0 .306.01.414.03.108.02.206.05.294.09l-.288 1.524a2.067 2.067 0 0 0-.648-.096c-.224 0-.458.08-.702.24-.244.16-.446.444-.606.852V12H120.4zm6.228 0l-2.004-5.952h1.776l.768 2.808c.08.296.158.598.234.906.076.308.154.618.234.93h.048c.072-.312.146-.622.222-.93.076-.308.154-.61.234-.906l.78-2.808h1.692L128.668 12h-2.04zm4.908 0V6.048h1.764V12h-1.764zm.876-6.828c-.296 0-.54-.086-.732-.258a.853.853 0 0 1-.288-.666c0-.272.096-.492.288-.66.192-.168.436-.252.732-.252.304 0 .55.084.738.252a.843.843 0 0 1 .282.66.862.862 0 0 1-.282.666c-.188.172-.434.258-.738.258zm5.028 6.972c-.416 0-.802-.07-1.158-.21a2.694 2.694 0 0 1-.93-.606 2.812 2.812 0 0 1-.624-.978 3.614 3.614 0 0 1-.228-1.326c0-.496.084-.938.252-1.326.168-.388.394-.714.678-.978.284-.264.614-.466.99-.606.376-.14.768-.21 1.176-.21.368 0 .694.06.978.18.284.12.538.272.762.456l-.828 1.14c-.28-.232-.548-.348-.804-.348-.432 0-.772.152-1.02.456-.248.304-.372.716-.372 1.236s.126.932.378 1.236c.252.304.57.456.954.456.192 0 .378-.042.558-.126.18-.084.35-.186.51-.306l.696 1.152a2.696 2.696 0 0 1-.96.546c-.344.108-.68.162-1.008.162zm5.34 0c-.424 0-.82-.07-1.188-.21a2.738 2.738 0 0 1-.96-.612 2.799 2.799 0 0 1-.636-.978 3.566 3.566 0 0 1-.228-1.32c0-.48.08-.914.24-1.302.16-.388.37-.716.63-.984s.558-.474.894-.618a2.624 2.624 0 0 1 1.044-.216c.424 0 .794.072 1.11.216.316.144.58.344.792.6.212.256.37.558.474.906.104.348.156.726.156 1.134a4.133 4.133 0 0 1-.072.78h-3.564c.08.432.258.75.534.954.276.204.614.306 1.014.306.424 0 .852-.132 1.284-.396l.588 1.068a3.91 3.91 0 0 1-1.014.492c-.372.12-.738.18-1.098.18zm-1.32-3.768h2.148c0-.336-.076-.608-.228-.816-.152-.208-.408-.312-.768-.312-.28 0-.526.092-.738.276-.212.184-.35.468-.414.852zm6.624 3.768c-.392 0-.794-.076-1.206-.228a3.719 3.719 0 0 1-1.074-.6l.792-1.104c.272.208.532.364.78.468.248.104.5.156.756.156.264 0 .456-.044.576-.132a.434.434 0 0 0 .18-.372.377.377 0 0 0-.102-.258 1.04 1.04 0 0 0-.276-.21 2.719 2.719 0 0 0-.39-.174 9.183 9.183 0 0 1-.444-.174 5.625 5.625 0 0 1-.552-.252 2.335 2.335 0 0 1-.504-.354 1.736 1.736 0 0 1-.372-.492 1.42 1.42 0 0 1-.144-.654c0-.272.054-.524.162-.756.108-.232.262-.428.462-.588.2-.16.44-.286.72-.378.28-.092.592-.138.936-.138.456 0 .856.078 1.2.234.344.156.644.33.9.522l-.792 1.056a3.119 3.119 0 0 0-.636-.372 1.59 1.59 0 0 0-.624-.132c-.448 0-.672.156-.672.468 0 .096.032.178.096.246s.15.13.258.186c.108.056.232.11.372.162l.438.162c.192.072.382.154.57.246.188.092.36.206.516.342.156.136.282.302.378.498.096.196.144.43.144.702 0 .272-.052.524-.156.756-.104.232-.26.434-.468.606a2.337 2.337 0 0 1-.768.408c-.304.1-.656.15-1.056.15z" fill="#FFF"/>
        </g>
    </g>
</svg>
