<svg width="25" height="25" viewBox="0 0 25 25" xmlns="http://www.w3.org/2000/svg">
    <title>
        facebook
    </title>
    <path d="M21.62 0H3.367A3.367 3.367 0 0 0 0 3.367V21.62a3.367 3.367 0 0 0 3.367 3.367h9.002l.016-8.93h-2.32a.547.547 0 0 1-.547-.544l-.012-2.878a.547.547 0 0 1 .548-.55h2.315V9.304c0-3.227 1.971-4.985 4.85-4.985h2.363c.302 0 .547.245.547.548v2.427a.547.547 0 0 1-.547.547h-1.45c-1.565 0-1.868.745-1.868 1.837v2.407h3.44c.328 0 .582.286.543.612l-.34 2.878a.547.547 0 0 1-.544.483h-3.084l-.015 8.929h5.356a3.367 3.367 0 0 0 3.367-3.367V3.367A3.367 3.367 0 0 0 21.62 0z" fill="#FFF" fill-rule="nonzero"/>
</svg>
