<svg width="215" height="50" viewBox="0 0 215 50" xmlns="http://www.w3.org/2000/svg">
    <title>
        logo
    </title>
    <g fill="none" fill-rule="evenodd">
        <path d="M18.506 12.728c.043-1.716.347-3.367.89-4.887a15.88 15.88 0 0 0-5.864-2.715 15.653 15.653 0 0 0-.565 6.43c1.607.303 3.171.846 4.692 1.672.304.173.586.347.868.52-.021-.325-.043-.672-.021-1.02zm6.994-1.607a15.241 15.241 0 0 1 3.236-3.801 16.337 16.337 0 0 0-3.714-5.3c-1.564 1.455-2.846 3.301-3.714 5.3a15.629 15.629 0 0 1 3.214 3.8c.174.283.348.587.5.87.13-.283.304-.565.478-.87zm4.496-4.757c2.193-1.52 4.778-2.52 7.515-3.02.934 2.63 1.368 5.344 1.13 8.016 2.67-.218 5.386.217 8.014 1.15-.5 2.738-1.499 5.3-3.019 7.494C46.046 21.156 48.197 22.871 50 25c-1.803 2.107-3.953 3.844-6.364 4.996 1.52 2.215 2.52 4.778 3.02 7.493-2.63.934-5.344 1.369-8.016 1.151.218 2.672-.195 5.387-1.13 8.015-2.736-.5-5.299-1.499-7.514-3.019C28.844 46.069 27.129 48.197 25 50c-2.107-1.803-3.844-3.953-4.996-6.364-2.215 1.52-4.778 2.52-7.493 3.02-.934-2.607-1.369-5.344-1.151-8.016-2.672.218-5.387-.195-8.015-1.15.5-2.738 1.499-5.3 3.019-7.494C3.954 28.844 1.803 27.129 0 25c1.803-2.129 3.953-3.844 6.364-4.996-1.52-2.193-2.52-4.756-3.02-7.493 2.607-.934 5.344-1.369 8.016-1.151-.218-2.672.195-5.387 1.15-8.015 2.738.5 5.3 1.499 7.494 3.019C21.156 3.931 22.871 1.803 25 0c2.129 1.803 3.844 3.931 4.996 6.364zm8.427 6.56a15.774 15.774 0 0 1-1.672 4.691c-.174.304-.348.587-.522.869.326-.022.652-.022 1.021-.022 1.716.044 3.367.348 4.887.89a15.88 15.88 0 0 0 2.715-5.864c-2.02-.608-4.257-.803-6.429-.564zm-3.475 7.254c-1.738 1.933-3.888 3.106-6.408 3.67-.065.066-.13.153-.195.218.087.022.174.065.282.109 2.476-.76 4.93-.826 7.407-.022.695-.26 1.368-.587 2.042-.978a13.8 13.8 0 0 0 3.019-2.497 14.71 14.71 0 0 0-3.867-.652 12.84 12.84 0 0 0-2.28.152zm-9.21 4.062c-.108 0-.217.022-.325.022-.044-.087-.109-.196-.152-.283-.087.065-.174.109-.261.174-.087-.065-.174-.109-.26-.174-.044.087-.11.196-.153.283-.108 0-.217 0-.325-.022 0 .108 0 .217.021.326-.108.043-.195.108-.282.152.065.087.13.173.174.282-.044.087-.109.174-.174.26.108.044.195.11.282.153 0 .108-.021.217-.021.325.108 0 .217 0 .325-.021.044.108.087.195.152.282.087-.065.174-.13.261-.174.087.044.174.109.26.174.044-.108.11-.195.153-.282.108 0 .217 0 .325.021 0-.108-.021-.217-.021-.325.108-.044.195-.109.282-.152-.065-.087-.108-.174-.174-.261.066-.087.109-.174.174-.282-.087-.044-.195-.087-.282-.152 0-.109.021-.218.021-.326zm-1.542-2.867c-.76-2.476-.825-4.93-.021-7.407a11.812 11.812 0 0 0-1-2.042A14.34 14.34 0 0 0 20.7 8.905c-.39 1.26-.63 2.563-.651 3.867-.022.781.043 1.542.174 2.258 1.933 1.716 3.106 3.888 3.67 6.408.087.065.152.13.217.195.022-.087.066-.173.087-.26zm3.258 1.15c.109-.02.196-.02.283-.043 1.76-1.91 3.866-3.192 6.386-3.714.477-.564.89-1.194 1.281-1.89a13.852 13.852 0 0 0 1.368-3.67 13.577 13.577 0 0 0-3.67 1.368c-.695.391-1.325.804-1.89 1.282-.543 2.52-1.825 4.626-3.714 6.386-.022.108-.044.195-.044.282zm9.6-10.968c.24-2.172.044-4.409-.586-6.429a15.88 15.88 0 0 0-5.864 2.715 15.22 15.22 0 0 1 .89 4.887c0 .348 0 .673-.021 1.02.282-.173.564-.347.868-.52a16.118 16.118 0 0 1 4.714-1.673zm-7.753-2.65a13.8 13.8 0 0 0-2.498 3.02 11.812 11.812 0 0 0-1 2.041c.804 2.455.74 4.909-.021 7.407.022.087.065.173.109.282.065-.065.152-.13.217-.195.586-2.52 1.737-4.692 3.67-6.408.13-.738.174-1.477.174-2.259-.022-1.325-.26-2.628-.651-3.888zm13.336 12.36a16.205 16.205 0 0 1-3.801 3.235c-.283.174-.587.348-.89.5.303.152.586.304.89.5a15.629 15.629 0 0 1 3.8 3.214c2-.869 3.845-2.15 5.3-3.714a15.55 15.55 0 0 0-5.3-3.736zm-6.625 4.539c-2.454.803-4.93.738-7.406-.022-.087.043-.174.065-.283.109.065.065.13.152.196.217 2.52.564 4.691 1.76 6.407 3.67.717.13 1.477.174 2.26.152 1.302-.021 2.605-.26 3.865-.651-.89-.956-1.911-1.825-3.019-2.476a10.912 10.912 0 0 0-2.02-1zm6.125 4.778a15.22 15.22 0 0 1-4.887.89h-1.02c.173.283.347.565.52.87a15.991 15.991 0 0 1 1.673 4.691c2.172.26 4.41.043 6.43-.586a15.88 15.88 0 0 0-2.716-5.865zm-8.014.608c-2.52-.543-4.627-1.824-6.386-3.736-.109-.021-.196-.021-.283-.043.022.087.022.195.044.282 1.911 1.76 3.193 3.867 3.714 6.386.565.478 1.195.89 1.89 1.26 1.13.63 2.389 1.086 3.67 1.368a13.313 13.313 0 0 0-1.368-3.67 15.533 15.533 0 0 0-1.281-1.847zm2.932 7.211a15.774 15.774 0 0 1-4.692-1.672c-.304-.174-.586-.326-.869-.521.022.325.022.673.022 1.02a15.972 15.972 0 0 1-.89 4.91 15.88 15.88 0 0 0 5.864 2.714c.608-2.041.804-4.279.565-6.45zm-7.277-3.475c-1.91-1.716-3.084-3.888-3.67-6.407-.065-.065-.152-.13-.217-.196-.044.087-.066.174-.11.283.761 2.476.826 4.93.023 7.384.26.695.586 1.369.999 2.042a13.8 13.8 0 0 0 2.498 3.02 14.71 14.71 0 0 0 .651-3.867c.022-.782-.043-1.52-.174-2.259zm-1.064 7.71a16.205 16.205 0 0 1-3.236-3.8c-.174-.304-.348-.587-.5-.89-.152.303-.326.586-.5.89a15.629 15.629 0 0 1-3.214 3.8c.869 2 2.15 3.845 3.714 5.3a15.98 15.98 0 0 0 3.736-5.3zm-4.54-6.646c-.803-2.454-.738-4.908.022-7.384-.021-.109-.065-.196-.108-.283-.087.065-.152.13-.217.196-.565 2.52-1.738 4.691-3.671 6.407-.13.739-.174 1.477-.174 2.26.022 1.302.26 2.605.652 3.865.955-.89 1.824-1.911 2.476-3.019.434-.673.76-1.347 1.02-2.042zm-4.778 6.126a15.244 15.244 0 0 1-.89-4.91c0-.347 0-.673.021-1.02-.282.174-.564.347-.868.521a15.991 15.991 0 0 1-4.692 1.673c-.26 2.172-.043 4.409.565 6.45 2.085-.456 4.105-1.411 5.864-2.714zm-.608-8.015c.521-2.541 1.825-4.627 3.714-6.386.022-.087.044-.195.044-.282-.087.021-.196.021-.283.043-1.76 1.911-3.844 3.193-6.386 3.736-.477.565-.89 1.195-1.281 1.868a13.852 13.852 0 0 0-1.368 3.67 13.577 13.577 0 0 0 3.67-1.368 13.102 13.102 0 0 0 1.89-1.281zm-7.211 2.932a15.991 15.991 0 0 1 1.672-4.692c.152-.304.326-.586.5-.868a7.666 7.666 0 0 1-1 0 15.353 15.353 0 0 1-4.908-.89 16.041 16.041 0 0 0-2.715 5.864c2.063.63 4.279.825 6.45.586zm3.475-7.255c1.716-1.933 3.888-3.106 6.408-3.67.065-.065.13-.152.195-.217-.109-.022-.195-.066-.282-.11-2.476.761-4.93.848-7.385.023-.695.26-1.369.586-2.042.999a14.34 14.34 0 0 0-3.019 2.476c1.26.39 2.563.63 3.866.651.782.022 1.542-.043 2.26-.152zm-7.689-1.086a15.629 15.629 0 0 1 3.801-3.214c.304-.174.587-.348.89-.5-.303-.152-.586-.326-.89-.5a15.241 15.241 0 0 1-3.8-3.236c-2 .87-3.845 2.15-5.3 3.715a15.55 15.55 0 0 0 5.3 3.735zm6.625-4.54c2.454-.803 4.909-.738 7.385.023.087-.022.173-.066.282-.109-.065-.087-.13-.152-.195-.239-2.542-.565-4.692-1.738-6.408-3.67a11.184 11.184 0 0 0-2.259-.153c-1.303.022-2.606.261-3.866.652a13.8 13.8 0 0 0 3.02 2.498c.672.412 1.346.738 2.04.999zm-6.125-4.778a15.244 15.244 0 0 1 4.909-.89c.347 0 .673 0 .999.022-.174-.283-.348-.565-.5-.87a15.774 15.774 0 0 1-1.672-4.69c-2.172-.24-4.41-.044-6.451.586a15.947 15.947 0 0 0 2.715 5.842zm8.014-.608c2.542.522 4.627 1.825 6.386 3.714.109.022.196.044.283.044-.022-.109-.022-.196-.044-.282-1.911-1.76-3.193-3.867-3.714-6.386-.565-.478-1.195-.89-1.868-1.282a13.852 13.852 0 0 0-3.67-1.368 13.577 13.577 0 0 0 1.368 3.67c.369.696.782 1.326 1.26 1.89z" fill="#0D3150" fill-rule="nonzero"/>
        <path d="M13.897 34.257c.88-.243 1.74-.586 2.536-1.011.566-.304 1.09-.648 1.592-1.012a10.974 10.974 0 0 1 1.341-3.257 11.838 11.838 0 0 1-3.373 1.295 9.578 9.578 0 0 0-1.048 1.537 10.57 10.57 0 0 0-1.048 2.448zm0-11.572a11.582 11.582 0 0 1 3.604-.506 12.175 12.175 0 0 1-2.87-2.165 10.068 10.068 0 0 0-1.907-.12c-.922.02-1.823.14-2.724.343.67.607 1.383 1.153 2.18 1.618a9.538 9.538 0 0 0 1.717.83zm0 2.63c-.586.223-1.173.486-1.718.81A13.976 13.976 0 0 0 10 27.742c.901.202 1.802.323 2.724.344.629.02 1.278-.02 1.907-.122.859-.89 1.802-1.598 2.87-2.164-1.215.02-2.41-.142-3.604-.486zm5.47-6.272a10.974 10.974 0 0 1-1.342-3.257 11.775 11.775 0 0 0-1.592-1.032 12.446 12.446 0 0 0-2.536-1.011c.252.85.608 1.679 1.048 2.468.314.546.67 1.052 1.048 1.538 1.215.263 2.347.708 3.373 1.294zm15.736 3.642a11.12 11.12 0 0 0 1.718-.83A13.976 13.976 0 0 0 39 20.237a12.396 12.396 0 0 0-2.724-.344c-.629-.02-1.278.02-1.907.121a11.55 11.55 0 0 1-2.85 2.165c1.195 0 2.39.162 3.584.506zM20.623 10c-.209.87-.335 1.74-.356 2.65a9.073 9.073 0 0 0 .126 1.841c.922.83 1.655 1.74 2.242 2.752a10.636 10.636 0 0 1 .524-3.48 10.325 10.325 0 0 0-.838-1.659A15.126 15.126 0 0 0 20.624 10zm14.5 3.743c-.88.243-1.739.586-2.556 1.011-.566.304-1.09.648-1.592 1.032a10.974 10.974 0 0 1-1.341 3.257 11.838 11.838 0 0 1 3.373-1.294c.398-.466.755-.992 1.069-1.538.44-.769.775-1.598 1.048-2.468zM28.377 10a13.605 13.605 0 0 0-1.676 2.104 11.387 11.387 0 0 0-.859 1.659c.377 1.153.545 2.306.524 3.48a11.373 11.373 0 0 1 2.242-2.752 9.073 9.073 0 0 0 .126-1.84c0-.911-.126-1.781-.357-2.651zm6.727 15.315a11.538 11.538 0 0 1-3.583.506 11.174 11.174 0 0 1 2.85 2.165c.628.1 1.277.12 1.906.12.922-.02 1.844-.14 2.724-.343a11.339 11.339 0 0 0-2.18-1.618 9.538 9.538 0 0 0-1.717-.83zm.02 8.942c-.272-.85-.607-1.679-1.047-2.448a11.315 11.315 0 0 0-1.069-1.537 11.838 11.838 0 0 1-3.373-1.295 10.974 10.974 0 0 1 1.34 3.257 9.985 9.985 0 0 0 1.593 1.012c.796.425 1.656.748 2.557 1.011zm-9.261-.02c.23.566.524 1.133.86 1.659A12.708 12.708 0 0 0 28.396 38c.21-.87.336-1.74.357-2.63a9.073 9.073 0 0 0-.126-1.841 11.268 11.268 0 0 1-2.242-2.752c0 1.154-.168 2.307-.524 3.46zM20.624 38a12.708 12.708 0 0 0 1.676-2.104 9.549 9.549 0 0 0 .838-1.659c-.356-1.153-.545-2.306-.524-3.48a10.902 10.902 0 0 1-2.242 2.752c-.105.607-.126 1.234-.126 1.84.021.911.147 1.781.378 2.651z" fill="#FCC0C1"/>
        <path d="M7.254 21.53A15.012 15.012 0 0 0 3 24.5a14.533 14.533 0 0 0 4.254 2.948 15.24 15.24 0 0 1 3.537-2.927s.021-.021.042-.021c-.02 0-.02-.021-.042-.021a15.33 15.33 0 0 1-3.537-2.948zm.842-3.095a15.117 15.117 0 0 1 4.527-.758h.043c0-.02-.022-.02-.022-.042a15.667 15.667 0 0 1-1.6-4.317c-1.727-.147-3.496 0-5.16.443a14.448 14.448 0 0 0 2.212 4.674zm10.34-10.36a14.954 14.954 0 0 0-4.697-2.19 15.186 15.186 0 0 0-.442 5.16c1.516.315 2.97.862 4.317 1.6.021 0 .021.02.042.02v-.042c.042-1.558.316-3.074.78-4.548zm9.033-.821A15.629 15.629 0 0 0 24.5 3a15.012 15.012 0 0 0-2.97 4.254c1.159 1.032 2.128 2.232 2.949 3.537 0 .021.021.021.021.042 0-.02.021-.02.021-.042.8-1.305 1.79-2.505 2.948-3.537zm3.854 5.412c.02 0 .02-.022.042-.022a15.667 15.667 0 0 1 4.317-1.6c.147-1.727 0-3.496-.443-5.16a15.175 15.175 0 0 0-4.695 2.19c.484 1.475.737 2.991.779 4.55v.042zm6.633.652c-.316 1.516-.863 2.948-1.6 4.317 0 .021-.022.021-.022.042h.043c1.558.021 3.074.295 4.548.758a14.74 14.74 0 0 0 2.19-4.696 15.727 15.727 0 0 0-5.16-.42zm3.79 14.151A15.38 15.38 0 0 0 46 24.521a15.012 15.012 0 0 0-4.254-2.97 15.24 15.24 0 0 1-3.537 2.928c-.021.021-.021.021-.042.021.02 0 .02.021.042.021a15.33 15.33 0 0 1 3.537 2.948zm-.82 3.096c-1.475.484-2.991.737-4.55.779h-.042c0 .02.022.02.022.042a15.667 15.667 0 0 1 1.6 4.317c1.727.147 3.496 0 5.16-.442a14.74 14.74 0 0 0-2.19-4.696zm-10.361 10.36a15.726 15.726 0 0 0 4.696 2.211c.442-1.663.59-3.432.442-5.159-1.516-.316-2.948-.863-4.317-1.6-.021 0-.021-.021-.042-.021v.042a15.839 15.839 0 0 1-.78 4.527zm-9.034.821A15.012 15.012 0 0 0 24.5 46a15.012 15.012 0 0 0 2.97-4.254 15.33 15.33 0 0 1-2.949-3.537c0-.021-.021-.021-.021-.042 0 .02-.021.02-.021.042a15.33 15.33 0 0 1-2.948 3.537zm-3.096-.82a15.839 15.839 0 0 1-.779-4.528v-.042c-.02 0-.02.02-.042.02a15.667 15.667 0 0 1-4.317 1.601c-.147 1.727 0 3.496.442 5.16a15.257 15.257 0 0 0 4.696-2.212zm-7.39-5.244c.315-1.516.862-2.97 1.6-4.317 0-.021.02-.021.02-.042h-.042a15.592 15.592 0 0 1-4.527-.78 15.257 15.257 0 0 0-2.211 4.696c1.663.464 3.432.59 5.16.443z" fill="#F7E9E3"/>
        <g fill="#EAB8BC">
            <path d="M60.304 42.192c-.768 0-1.45-.147-2.048-.44a4.878 4.878 0 0 1-1.52-1.144l.48-.512c.384.437.843.784 1.376 1.04a3.905 3.905 0 0 0 1.712.384c.81 0 1.45-.195 1.92-.584.47-.39.704-.899.704-1.528 0-.33-.05-.61-.152-.84a1.862 1.862 0 0 0-.408-.592 2.475 2.475 0 0 0-.6-.424 18.77 18.77 0 0 0-.728-.352l-1.6-.72a8.806 8.806 0 0 1-.72-.352 3.001 3.001 0 0 1-.696-.52 2.733 2.733 0 0 1-.52-.736c-.139-.283-.208-.621-.208-1.016 0-.384.077-.733.232-1.048a2.5 2.5 0 0 1 .64-.816c.272-.23.597-.408.976-.536a3.798 3.798 0 0 1 1.224-.192c.64 0 1.208.125 1.704.376.496.25.904.547 1.224.888l-.416.48a3.71 3.71 0 0 0-1.088-.776c-.416-.197-.89-.296-1.424-.296-.704 0-1.27.17-1.696.512-.427.341-.64.8-.64 1.376 0 .31.059.57.176.784.117.213.267.397.448.552.181.155.379.288.592.4.213.112.416.21.608.296l1.6.704c.299.128.581.272.848.432.267.16.501.347.704.56.203.213.365.467.488.76s.184.643.184 1.048-.08.781-.24 1.128c-.16.347-.387.645-.68.896-.293.25-.648.448-1.064.592-.416.144-.88.216-1.392.216zm8.916 0c-.49 0-.952-.09-1.384-.272a3.209 3.209 0 0 1-1.128-.792 3.824 3.824 0 0 1-.76-1.264c-.187-.496-.28-1.059-.28-1.688 0-.63.093-1.195.28-1.696.187-.501.437-.925.752-1.272a3.36 3.36 0 0 1 1.072-.8 2.9 2.9 0 0 1 1.24-.28c.917 0 1.637.31 2.16.928.523.619.784 1.493.784 2.624v.288c0 .096-.01.192-.032.288h-5.536c.01.48.085.925.224 1.336.139.41.333.763.584 1.056.25.293.552.523.904.688.352.165.747.248 1.184.248a3.27 3.27 0 0 0 1.128-.184c.336-.123.648-.29.936-.504l.288.544c-.31.181-.648.352-1.016.512-.368.16-.835.24-1.4.24zm-2.832-4.512h4.896c0-.992-.203-1.73-.608-2.216-.405-.485-.955-.728-1.648-.728-.33 0-.645.067-.944.2a2.5 2.5 0 0 0-.808.584c-.24.256-.437.565-.592.928a4.093 4.093 0 0 0-.296 1.232zM74.536 42v-7.68h.608l.064 1.424h.048c.256-.48.568-.87.936-1.168a1.917 1.917 0 0 1 1.24-.448c.15 0 .283.01.4.032.117.021.24.064.368.128l-.16.64a1.566 1.566 0 0 0-.336-.104 2.31 2.31 0 0 0-.368-.024c-.341 0-.701.147-1.08.44-.379.293-.717.803-1.016 1.528V42h-.704zm7.748 0l-2.88-7.68h.768l1.728 4.816c.117.373.245.747.384 1.12.139.373.267.736.384 1.088h.064c.128-.352.259-.715.392-1.088.133-.373.264-.747.392-1.12l1.728-4.816h.72L83.116 42h-.832zm5.844 0v-7.68h.704V42h-.704zm.368-9.536a.634.634 0 0 1-.456-.176.593.593 0 0 1-.184-.448c0-.203.061-.36.184-.472a.651.651 0 0 1 .456-.168c.181 0 .333.056.456.168.123.112.184.27.184.472 0 .181-.061.33-.184.448a.634.634 0 0 1-.456.176zm6.644 9.728c-.501 0-.963-.09-1.384-.272a3.216 3.216 0 0 1-1.104-.784 3.604 3.604 0 0 1-.736-1.256c-.176-.496-.264-1.064-.264-1.704 0-.64.096-1.213.288-1.72.192-.507.448-.93.768-1.272.32-.341.69-.603 1.112-.784a3.344 3.344 0 0 1 1.336-.272c.533 0 .976.096 1.328.288.352.192.661.41.928.656l-.416.496a3.51 3.51 0 0 0-.816-.584 2.16 2.16 0 0 0-1.008-.232c-.395 0-.76.083-1.096.248-.336.165-.63.4-.88.704-.25.304-.448.664-.592 1.08-.144.416-.216.88-.216 1.392 0 .501.067.96.2 1.376a3.3 3.3 0 0 0 .56 1.072c.24.299.533.53.88.696.347.165.728.248 1.144.248.405 0 .781-.085 1.128-.256a3.88 3.88 0 0 0 .92-.624l.368.496a4.8 4.8 0 0 1-1.104.72 3.1 3.1 0 0 1-1.344.288zm7.476 0c-.49 0-.952-.09-1.384-.272a3.209 3.209 0 0 1-1.128-.792 3.824 3.824 0 0 1-.76-1.264c-.187-.496-.28-1.059-.28-1.688 0-.63.093-1.195.28-1.696.187-.501.437-.925.752-1.272a3.36 3.36 0 0 1 1.072-.8 2.9 2.9 0 0 1 1.24-.28c.917 0 1.637.31 2.16.928.523.619.784 1.493.784 2.624v.288c0 .096-.01.192-.032.288h-5.536c.01.48.085.925.224 1.336.139.41.333.763.584 1.056.25.293.552.523.904.688.352.165.747.248 1.184.248a3.27 3.27 0 0 0 1.128-.184c.336-.123.648-.29.936-.504l.288.544c-.31.181-.648.352-1.016.512-.368.16-.835.24-1.4.24zm-2.832-4.512h4.896c0-.992-.203-1.73-.608-2.216-.405-.485-.955-.728-1.648-.728-.33 0-.645.067-.944.2a2.5 2.5 0 0 0-.808.584c-.24.256-.437.565-.592.928a4.093 4.093 0 0 0-.296 1.232zm10.004 4.512a3.942 3.942 0 0 1-1.584-.312 4.944 4.944 0 0 1-1.232-.744l.416-.528c.33.277.683.51 1.056.696.373.187.837.28 1.392.28.608 0 1.064-.152 1.368-.456.304-.304.456-.659.456-1.064 0-.235-.056-.443-.168-.624a1.583 1.583 0 0 0-.44-.464 3.422 3.422 0 0 0-.6-.336c-.219-.096-.44-.187-.664-.272a36.225 36.225 0 0 1-.872-.336 3.854 3.854 0 0 1-.792-.424 2.065 2.065 0 0 1-.568-.592c-.144-.23-.216-.51-.216-.84 0-.277.053-.541.16-.792.107-.25.267-.47.48-.656a2.34 2.34 0 0 1 .776-.44c.304-.107.659-.16 1.064-.16s.803.075 1.192.224c.39.15.723.341 1 .576l-.384.496a4.525 4.525 0 0 0-.816-.488c-.288-.133-.63-.2-1.024-.2-.299 0-.555.04-.768.12a1.69 1.69 0 0 0-.536.312c-.144.128-.25.277-.32.448-.07.17-.104.341-.104.512 0 .224.05.413.152.568.101.155.237.29.408.408.17.117.365.221.584.312.219.09.44.179.664.264l.896.352c.299.117.568.261.808.432.24.17.435.381.584.632.15.25.224.563.224.936 0 .288-.056.563-.168.824-.112.261-.28.49-.504.688a2.544 2.544 0 0 1-.816.472c-.32.117-.688.176-1.104.176z"/>
        </g>
        <path d="M59.25 23.45c-1.153-.553-2.067-1.33-2.74-2.33s-1.01-2.14-1.01-3.42a6.47 6.47 0 0 1 .98-3.44c.653-1.067 1.597-1.923 2.83-2.57 1.233-.647 2.683-.97 4.35-.97.587 0 1.223.07 1.91.21.687.14 1.277.31 1.77.51.267.12.413.3.44.54.107.733.16 1.54.16 2.42 0 .12-.033.21-.1.27a.346.346 0 0 1-.24.09.468.468 0 0 1-.27-.09.512.512 0 0 1-.19-.27c-.133-.387-.253-.7-.36-.94-.107-.24-.26-.46-.46-.66-.627-.653-1.573-.98-2.84-.98-.867 0-1.627.243-2.28.73-.653.487-1.157 1.137-1.51 1.95a6.504 6.504 0 0 0-.53 2.62c0 1.853.367 3.32 1.1 4.4.733 1.08 1.807 1.62 3.22 1.62.987 0 1.787-.203 2.4-.61s1.127-1.063 1.54-1.97c.093-.227.24-.34.44-.34.093 0 .17.03.23.09s.09.143.09.25c0 .613-.14 1.4-.42 2.36-.067.267-.24.467-.52.6-1.12.507-2.507.76-4.16.76-1.4 0-2.677-.277-3.83-.83zm10.78.28c-.407-.367-.61-.81-.61-1.33 0-.453.143-.84.43-1.16.287-.32.73-.613 1.33-.88l1.72-.76c.267-.12.433-.227.5-.32s.1-.273.1-.54l.02-1.1c.027-.8-.24-1.2-.8-1.2-.16 0-.327.037-.5.11-.173.073-.3.157-.38.25-.067.08-.1.207-.1.38 0 .093.007.197.02.31.013.113.02.217.02.31 0 .133-.233.303-.7.51-.467.207-.86.31-1.18.31a.34.34 0 0 1-.27-.13.493.493 0 0 1-.11-.33c0-.213.073-.42.22-.62.147-.2.393-.44.74-.72a8.264 8.264 0 0 1 1.81-1.09c.673-.3 1.237-.45 1.69-.45.76 0 1.363.243 1.81.73.447.487.663 1.137.65 1.95l-.1 3.88c-.013.307.037.57.15.79.113.22.257.33.43.33.24 0 .453-.087.64-.26.04-.04.08-.06.12-.06.067 0 .123.023.17.07.047.047.07.103.07.17 0 .16-.133.373-.4.64-.507.507-1.087.76-1.74.76-.413 0-.773-.093-1.08-.28-.307-.187-.593-.48-.86-.88h-.04c-.44.427-.833.727-1.18.9-.347.173-.713.26-1.1.26-.587 0-1.083-.183-1.49-.55zm3.25-1.09c.08-.107.12-.26.12-.46l.06-1.54c0-.187-.067-.28-.2-.28-.053 0-.12.02-.2.06-.373.2-.63.393-.77.58-.14.187-.21.493-.21.92 0 .347.067.597.2.75.133.153.293.23.48.23a.626.626 0 0 0 .52-.26zm5.46.98c-.133-.2-.23-.523-.29-.97a8.054 8.054 0 0 1-.05-1.47c0-.08.04-.143.12-.19.08-.047.18-.07.3-.07.107 0 .203.037.29.11.087.073.15.15.19.23.32.653.637 1.16.95 1.52.313.36.697.54 1.15.54.32 0 .57-.1.75-.3.18-.2.27-.44.27-.72 0-.307-.123-.573-.37-.8a4.217 4.217 0 0 0-.97-.64c-.707-.347-1.277-.743-1.71-1.19-.433-.447-.65-1.03-.65-1.75 0-.787.32-1.427.96-1.92.64-.493 1.427-.74 2.36-.74.413 0 .82.047 1.22.14.4.093.687.193.86.3.107.133.19.387.25.76s.09.807.09 1.3c0 .067-.037.12-.11.16a.605.605 0 0 1-.29.06.538.538 0 0 1-.3-.11c-.107-.073-.173-.143-.2-.21-.173-.52-.397-.917-.67-1.19-.273-.273-.57-.41-.89-.41-.307 0-.573.097-.8.29a.92.92 0 0 0-.34.73c0 .24.12.467.36.68.24.213.573.433 1 .66.907.48 1.54.933 1.9 1.36.36.427.54.987.54 1.68 0 .907-.29 1.603-.87 2.09-.58.487-1.437.73-2.57.73-.987 0-1.813-.22-2.48-.66zm8.89-.01c-.46-.447-.69-1.09-.69-1.93v-4.6c0-.12-.047-.207-.14-.26-.093-.053-.253-.087-.48-.1h-.3c-.08 0-.157-.08-.23-.24a1.103 1.103 0 0 1-.11-.46c0-.093.04-.153.12-.18.707-.227 1.76-.94 3.16-2.14.027-.013.077-.05.15-.11a.913.913 0 0 1 .2-.13.463.463 0 0 1 .19-.04c.133 0 .223.03.27.09.047.06.063.177.05.35l-.14 1.24c-.04.293.127.44.5.44h2.4c.027 0 .06.047.1.14a.63.63 0 0 1 .06.24c0 .213-.027.41-.08.59-.053.18-.113.27-.18.27h-1.84c-.28 0-.483.04-.61.12-.127.08-.19.207-.19.38v3.74c0 .613.113 1.073.34 1.38.227.307.54.46.94.46.267 0 .48-.02.64-.06.16-.04.297-.087.41-.14.113-.053.197-.093.25-.12.053-.027.1-.04.14-.04.067 0 .12.043.16.13.04.087.06.19.06.31 0 .093-.157.25-.47.47-.313.22-.707.42-1.18.6s-.95.27-1.43.27c-.92 0-1.61-.223-2.07-.67zm5.71.37a.266.266 0 0 1-.1-.22c0-.173.153-.313.46-.42l.29-.1a.685.685 0 0 0 .34-.23c.073-.1.11-.243.11-.43v-9.5c0-.413-.05-.74-.15-.98-.1-.24-.303-.393-.61-.46-.147-.027-.22-.133-.22-.32 0-.173.067-.273.2-.3a11.12 11.12 0 0 0 1.77-.51c.673-.247 1.05-.383 1.13-.41l.38-.14a.96.96 0 0 1 .28-.06c.147 0 .22.087.22.26l-.04.46-.06.62v11.3c0 .227.047.387.14.48.093.093.207.16.34.2l.26.08c.307.107.46.247.46.42a.266.266 0 0 1-.1.22c-.067.053-.167.08-.3.08-.293 0-.707-.013-1.24-.04l-1.08-.02c-.227 0-.567.013-1.02.04-.36.04-.747.06-1.16.06-.133 0-.233-.027-.3-.08zm7.39-.28a4.01 4.01 0 0 1-1.37-1.58c-.333-.667-.5-1.407-.5-2.22 0-.84.2-1.613.6-2.32.4-.707.943-1.267 1.63-1.68a4.283 4.283 0 0 1 2.25-.62c.56 0 1.077.127 1.55.38.473.253.85.593 1.13 1.02.28.427.42.9.42 1.42 0 .267-.05.463-.15.59-.1.127-.257.19-.47.19h-3.96c-.187 0-.323.053-.41.16-.087.107-.13.287-.13.54 0 .733.233 1.347.7 1.84.467.493 1.067.74 1.8.74.36 0 .7-.07 1.02-.21.32-.14.667-.343 1.04-.61.12-.093.213-.14.28-.14.147 0 .22.087.22.26 0 .12-.04.3-.12.54-.2.6-.623 1.13-1.27 1.59-.647.46-1.423.69-2.33.69-.707 0-1.35-.193-1.93-.58zm2.19-5.7c.32 0 .557-.007.71-.02.153-.013.29-.04.41-.08.053-.013.103-.08.15-.2.047-.12.07-.253.07-.4 0-.347-.11-.63-.33-.85-.22-.22-.503-.33-.85-.33-.4 0-.76.167-1.08.5-.32.333-.467.693-.44 1.08 0 .093.027.167.08.22.053.053.127.08.22.08h1.06zm13.13 5.45c-1.153-.553-2.067-1.33-2.74-2.33s-1.01-2.14-1.01-3.42a6.47 6.47 0 0 1 .98-3.44c.653-1.067 1.597-1.923 2.83-2.57 1.233-.647 2.683-.97 4.35-.97.587 0 1.223.07 1.91.21.687.14 1.277.31 1.77.51.267.12.413.3.44.54.107.733.16 1.54.16 2.42 0 .12-.033.21-.1.27a.346.346 0 0 1-.24.09.468.468 0 0 1-.27-.09.512.512 0 0 1-.19-.27c-.133-.387-.253-.7-.36-.94-.107-.24-.26-.46-.46-.66-.627-.653-1.573-.98-2.84-.98-.867 0-1.627.243-2.28.73-.653.487-1.157 1.137-1.51 1.95a6.504 6.504 0 0 0-.53 2.62c0 1.853.367 3.32 1.1 4.4.733 1.08 1.807 1.62 3.22 1.62.987 0 1.787-.203 2.4-.61s1.127-1.063 1.54-1.97c.093-.227.24-.34.44-.34.093 0 .17.03.23.09s.09.143.09.25c0 .613-.14 1.4-.42 2.36-.067.267-.24.467-.52.6-1.12.507-2.507.76-4.16.76-1.4 0-2.677-.277-3.83-.83zm12.49.29a3.978 3.978 0 0 1-1.57-1.51 4.203 4.203 0 0 1-.57-2.17c0-.867.213-1.667.64-2.4a4.837 4.837 0 0 1 1.73-1.75 4.617 4.617 0 0 1 2.41-.65c.813 0 1.563.193 2.25.58.687.387 1.23.903 1.63 1.55.4.647.6 1.343.6 2.09 0 .893-.187 1.703-.56 2.43a4.17 4.17 0 0 1-1.67 1.73c-.74.427-1.637.64-2.69.64-.8 0-1.533-.18-2.2-.54zm3.64-.98c.293-.493.44-1.427.44-2.8 0-1.107-.16-2.01-.48-2.71-.32-.7-.74-1.05-1.26-1.05-.347 0-.633.113-.86.34-.227.227-.383.583-.47 1.07-.087.487-.13 1.137-.13 1.95 0 .64.073 1.25.22 1.83.147.58.35 1.05.61 1.41.26.36.55.54.87.54.467 0 .82-.193 1.06-.58zm10.56 1.46c0-.2.02-.42.06-.66l.04-.6c0-.133-.013-.213-.04-.24-.333.44-.79.813-1.37 1.12-.58.307-1.163.46-1.75.46-.4 0-.77-.13-1.11-.39-.34-.26-.607-.61-.8-1.05a3.59 3.59 0 0 1-.29-1.46v-3.68c0-.333-.057-.59-.17-.77-.113-.18-.317-.297-.61-.35a.37.37 0 0 1-.23-.12.374.374 0 0 1-.09-.26c0-.093.027-.173.08-.24a.33.33 0 0 1 .22-.12 12.95 12.95 0 0 0 1.51-.16c.473-.08 1.01-.193 1.61-.34.227-.067.387-.1.48-.1.187 0 .273.093.26.28a8.062 8.062 0 0 0-.16 1.54v3.82c0 .48.103.86.31 1.14.207.28.477.427.81.44.453 0 .827-.147 1.12-.44.08-.08.147-.223.2-.43.053-.207.08-.463.08-.77v-3.12c0-.333-.087-.603-.26-.81-.173-.207-.427-.317-.76-.33-.333-.027-.5-.18-.5-.46 0-.147.047-.253.14-.32a.605.605 0 0 1 .36-.1 61.888 61.888 0 0 0 2.33-.17 8.893 8.893 0 0 0 1.23-.21c.16-.04.253-.06.28-.06.2 0 .3.08.3.24 0 .04-.027.153-.08.34-.027.16-.057.39-.09.69-.033.3-.05.537-.05.71v4.64c0 .48.12.72.36.72l.48.02c.133 0 .233.033.3.1.067.067.1.16.1.28 0 .147-.027.257-.08.33-.053.073-.147.117-.28.13-.987.093-2.06.367-3.22.82-.24.093-.42.14-.54.14-.12 0-.18-.067-.18-.2zm4.99-.25c-.087-.06-.13-.13-.13-.21 0-.173.153-.313.46-.42.253-.08.44-.167.56-.26.12-.093.18-.26.18-.5v-4.64c0-.627-.2-.973-.6-1.04-.053-.013-.103-.053-.15-.12a.444.444 0 0 1-.07-.26c0-.2.067-.32.2-.36.507-.12 1.053-.27 1.64-.45a9.546 9.546 0 0 0 1.44-.55 5.02 5.02 0 0 0 .18-.1.492.492 0 0 1 .22-.08c.133 0 .2.087.2.26l-.04.42c-.04.44-.06.673-.06.7 0 .173.013.273.04.3.507-.467.98-.813 1.42-1.04.44-.227.947-.34 1.52-.34.733 0 1.333.26 1.8.78.467.52.7 1.22.7 2.1v4.44c0 .24.057.403.17.49.113.087.303.17.57.25.267.093.4.233.4.42 0 .08-.037.15-.11.21a.359.359 0 0 1-.23.09c-.413 0-.813-.02-1.2-.06-.48-.027-.827-.04-1.04-.04-.227 0-.567.013-1.02.04-.373.04-.767.06-1.18.06a.322.322 0 0 1-.22-.09.275.275 0 0 1-.1-.21c0-.187.127-.327.38-.42.253-.08.43-.163.53-.25.1-.087.15-.25.15-.49v-3.94c0-.493-.107-.88-.32-1.16a1.006 1.006 0 0 0-.84-.42c-.24 0-.46.037-.66.11-.2.073-.42.19-.66.35-.107.067-.16.187-.16.36v4.7c0 .24.05.4.15.48.1.08.277.167.53.26s.38.233.38.42c0 .08-.033.15-.1.21a.322.322 0 0 1-.22.09c-.4 0-.78-.02-1.14-.06-.453-.027-.787-.04-1-.04-.213 0-.573.013-1.08.04-.4.04-.807.06-1.22.06a.468.468 0 0 1-.27-.09zm11.87-.35c-.133-.2-.23-.523-.29-.97a8.054 8.054 0 0 1-.05-1.47c0-.08.04-.143.12-.19.08-.047.18-.07.3-.07.107 0 .203.037.29.11.087.073.15.15.19.23.32.653.637 1.16.95 1.52.313.36.697.54 1.15.54.32 0 .57-.1.75-.3.18-.2.27-.44.27-.72 0-.307-.123-.573-.37-.8a4.217 4.217 0 0 0-.97-.64c-.707-.347-1.277-.743-1.71-1.19-.433-.447-.65-1.03-.65-1.75 0-.787.32-1.427.96-1.92.64-.493 1.427-.74 2.36-.74.413 0 .82.047 1.22.14.4.093.687.193.86.3.107.133.19.387.25.76s.09.807.09 1.3c0 .067-.037.12-.11.16a.605.605 0 0 1-.29.06.538.538 0 0 1-.3-.11c-.107-.073-.173-.143-.2-.21-.173-.52-.397-.917-.67-1.19-.273-.273-.57-.41-.89-.41-.307 0-.573.097-.8.29a.92.92 0 0 0-.34.73c0 .24.12.467.36.68.24.213.573.433 1 .66.907.48 1.54.933 1.9 1.36.36.427.54.987.54 1.68 0 .907-.29 1.603-.87 2.09-.58.487-1.437.73-2.57.73-.987 0-1.813-.22-2.48-.66zm8.73.08a4.01 4.01 0 0 1-1.37-1.58c-.333-.667-.5-1.407-.5-2.22 0-.84.2-1.613.6-2.32.4-.707.943-1.267 1.63-1.68a4.283 4.283 0 0 1 2.25-.62c.56 0 1.077.127 1.55.38.473.253.85.593 1.13 1.02.28.427.42.9.42 1.42 0 .267-.05.463-.15.59-.1.127-.257.19-.47.19h-3.96c-.187 0-.323.053-.41.16-.087.107-.13.287-.13.54 0 .733.233 1.347.7 1.84.467.493 1.067.74 1.8.74.36 0 .7-.07 1.02-.21.32-.14.667-.343 1.04-.61.12-.093.213-.14.28-.14.147 0 .22.087.22.26 0 .12-.04.3-.12.54-.2.6-.623 1.13-1.27 1.59-.647.46-1.423.69-2.33.69-.707 0-1.35-.193-1.93-.58zm2.19-5.7c.32 0 .557-.007.71-.02.153-.013.29-.04.41-.08.053-.013.103-.08.15-.2.047-.12.07-.253.07-.4 0-.347-.11-.63-.33-.85-.22-.22-.503-.33-.85-.33-.4 0-.76.167-1.08.5-.32.333-.467.693-.44 1.08 0 .093.027.167.08.22.053.053.127.08.22.08h1.06zm4.38 5.98a.266.266 0 0 1-.1-.22c0-.173.153-.313.46-.42l.29-.1a.685.685 0 0 0 .34-.23c.073-.1.11-.243.11-.43v-9.5c0-.413-.05-.74-.15-.98-.1-.24-.303-.393-.61-.46-.147-.027-.22-.133-.22-.32 0-.173.067-.273.2-.3a11.12 11.12 0 0 0 1.77-.51c.673-.247 1.05-.383 1.13-.41l.38-.14a.96.96 0 0 1 .28-.06c.147 0 .22.087.22.26l-.04.46-.06.62v11.3c0 .227.047.387.14.48.093.093.207.16.34.2l.26.08c.307.107.46.247.46.42a.266.266 0 0 1-.1.22c-.067.053-.167.08-.3.08-.293 0-.707-.013-1.24-.04l-1.08-.02c-.227 0-.567.013-1.02.04-.36.04-.747.06-1.16.06-.133 0-.233-.027-.3-.08zm5.9 0a.266.266 0 0 1-.1-.22c0-.173.153-.313.46-.42l.29-.1a.685.685 0 0 0 .34-.23c.073-.1.11-.243.11-.43v-9.5c0-.413-.05-.74-.15-.98-.1-.24-.303-.393-.61-.46-.147-.027-.22-.133-.22-.32 0-.173.067-.273.2-.3a11.12 11.12 0 0 0 1.77-.51c.673-.247 1.05-.383 1.13-.41l.38-.14a.96.96 0 0 1 .28-.06c.147 0 .22.087.22.26l-.04.46-.06.62v11.3c0 .227.047.387.14.48.093.093.207.16.34.2l.26.08c.307.107.46.247.46.42a.266.266 0 0 1-.1.22c-.067.053-.167.08-.3.08-.293 0-.707-.013-1.24-.04l-1.08-.02c-.227 0-.567.013-1.02.04-.36.04-.747.06-1.16.06-.133 0-.233-.027-.3-.08zm6 0a.246.246 0 0 1-.1-.2c0-.2.113-.333.34-.4.373-.093.627-.19.76-.29.133-.1.2-.25.2-.45v-4.32c0-.453-.067-.77-.2-.95-.133-.18-.353-.29-.66-.33a.242.242 0 0 1-.18-.13.514.514 0 0 1-.06-.25c0-.093.023-.173.07-.24a.272.272 0 0 1 .17-.12 9.648 9.648 0 0 0 1.64-.46c.48-.187 1.033-.42 1.66-.7.24-.107.387-.16.44-.16.093 0 .163.027.21.08.047.053.07.12.07.2l-.1.88c-.107.907-.16 1.607-.16 2.1v4.38c0 .173.067.313.2.42.133.107.387.22.76.34.12.04.21.087.27.14.06.053.09.133.09.24 0 .187-.1.28-.3.28-.253 0-.687-.013-1.3-.04-.587-.027-.987-.04-1.2-.04-.227 0-.607.013-1.14.04-.427.04-.847.06-1.26.06a.344.344 0 0 1-.22-.08zm1.36-10.24a1.614 1.614 0 0 1-.5-1.18c0-.493.163-.907.49-1.24.327-.333.723-.5 1.19-.5.493 0 .907.167 1.24.5.333.333.5.747.5 1.24 0 .467-.167.863-.5 1.19-.333.327-.747.49-1.24.49-.453 0-.847-.167-1.18-.5zm4.79 10.23c-.087-.06-.13-.13-.13-.21 0-.173.153-.313.46-.42.253-.08.44-.167.56-.26.12-.093.18-.26.18-.5v-4.64c0-.627-.2-.973-.6-1.04-.053-.013-.103-.053-.15-.12a.444.444 0 0 1-.07-.26c0-.2.067-.32.2-.36.507-.12 1.053-.27 1.64-.45a9.546 9.546 0 0 0 1.44-.55 5.02 5.02 0 0 0 .18-.1.492.492 0 0 1 .22-.08c.133 0 .2.087.2.26l-.04.42c-.04.44-.06.673-.06.7 0 .173.013.273.04.3.507-.467.98-.813 1.42-1.04.44-.227.947-.34 1.52-.34.733 0 1.333.26 1.8.78.467.52.7 1.22.7 2.1v4.44c0 .24.057.403.17.49.113.087.303.17.57.25.267.093.4.233.4.42 0 .08-.037.15-.11.21a.359.359 0 0 1-.23.09c-.413 0-.813-.02-1.2-.06-.48-.027-.827-.04-1.04-.04-.227 0-.567.013-1.02.04-.373.04-.767.06-1.18.06a.322.322 0 0 1-.22-.09.275.275 0 0 1-.1-.21c0-.187.127-.327.38-.42.253-.08.43-.163.53-.25.1-.087.15-.25.15-.49v-3.94c0-.493-.107-.88-.32-1.16a1.006 1.006 0 0 0-.84-.42c-.24 0-.46.037-.66.11-.2.073-.42.19-.66.35-.107.067-.16.187-.16.36v4.7c0 .24.05.4.15.48.1.08.277.167.53.26s.38.233.38.42c0 .08-.033.15-.1.21a.322.322 0 0 1-.22.09c-.4 0-.78-.02-1.14-.06-.453-.027-.787-.04-1-.04-.213 0-.573.013-1.08.04-.4.04-.807.06-1.22.06a.468.468 0 0 1-.27-.09zm21.26-8.12c.06.087.09.203.09.35 0 .107-.027.24-.08.4-.053.16-.12.293-.2.4-.08.093-.167.14-.26.14h-.54c-.347 0-.587.053-.72.16a.233.233 0 0 1-.06.04c-.027.013-.04.097-.04.25v.65c0 .693-.183 1.337-.55 1.93a4.065 4.065 0 0 1-1.49 1.42c-.627.353-1.3.53-2.02.53-.44 0-.907-.087-1.4-.26-.213.173-.32.327-.32.46 0 .2.197.347.59.44.393.093 1.163.187 2.31.28 1.493.12 2.57.343 3.23.67.66.327.99.803.99 1.43 0 .733-.27 1.46-.81 2.18a6.34 6.34 0 0 1-2.08 1.77c-.847.46-1.697.69-2.55.69-1.333 0-2.373-.2-3.12-.6-.747-.4-1.12-.953-1.12-1.66 0-.44.05-.777.15-1.01.1-.233.323-.477.67-.73l1.08-.8c-.907-.427-1.36-1.053-1.36-1.88 0-.293.187-.56.56-.8.453-.293.807-.567 1.06-.82a3.633 3.633 0 0 1-1.21-1.17c-.3-.473-.45-.997-.45-1.57 0-.667.193-1.263.58-1.79.387-.527.9-.94 1.54-1.24a4.748 4.748 0 0 1 2.78-.39c.267.04.533.087.8.14l.96.18c.56.093 1.107.14 1.64.14.187 0 .413-.013.68-.04l.42-.02c.107 0 .19.043.25.13zm-4.68 4.66c.233-.46.35-1.083.35-1.87 0-.76-.123-1.367-.37-1.82-.247-.453-.577-.68-.99-.68-.373 0-.687.227-.94.68-.253.453-.38 1.027-.38 1.72 0 .76.133 1.393.4 1.9.267.507.593.76.98.76.4 0 .717-.23.95-.69zm1.32 5.61c-.14-.12-.387-.22-.74-.3-.353-.08-.877-.16-1.57-.24a10.425 10.425 0 0 1-1.52-.26c-.72.44-1.08.947-1.08 1.52 0 .547.227.997.68 1.35.453.353 1.033.53 1.74.53.947 0 1.6-.18 1.96-.54.227-.227.407-.48.54-.76a1.9 1.9 0 0 0 .2-.82.6.6 0 0 0-.21-.48z" fill="#0D3150"/>
    </g>
</svg>
