<svg width="25" height="25" viewBox="0 0 25 25" xmlns="http://www.w3.org/2000/svg">
    <title>
        messenger
    </title>
    <path d="M12.477.002c6.742-.133 12.322 5.214 12.475 11.956C24.8 18.7 19.22 24.047 12.477 23.914a12.872 12.872 0 0 1-4.624-.85l-2.898 1.81a.52.52 0 0 1-.795-.44v-3.576A11.73 11.73 0 0 1 0 11.958C.155 5.216 5.734-.13 12.477.002zm8.213 8.525a.52.52 0 0 0-.665-.145l-5.406 2.947-3.364-2.884a.52.52 0 0 0-.706.027L4.312 14.71a.52.52 0 0 0 .616.824l5.406-2.948 3.367 2.885a.52.52 0 0 0 .705-.027l6.238-6.238a.52.52 0 0 0 .046-.679z" fill="#FFF" fill-rule="nonzero"/>
</svg>
