<?xml version="1.0" standalone="no"?>
<!DOCTYPE svg PUBLIC "-//W3C//DTD SVG 20010904//EN"
 "http://www.w3.org/TR/2001/REC-SVG-20010904/DTD/svg10.dtd">
<svg version="1.0" xmlns="http://www.w3.org/2000/svg"
 width="260.000000pt" height="260.000000pt" viewBox="0 0 260.000000 260.000000"
 preserveAspectRatio="xMidYMid meet">
<metadata>
Created by potrace 1.11, written by Peter Selinger 2001-2013
</metadata>
<g transform="translate(0.000000,260.000000) scale(0.100000,-0.100000)"
fill="#000000" stroke="none">
<path d="M1230 2353 c-52 -57 -106 -130 -145 -197 -9 -16 -17 -14 -85 22 -68
36 -160 70 -232 86 -26 6 -28 3 -49 -61 -14 -45 -23 -107 -26 -180 l-6 -113
-78 0 c-81 0 -151 -11 -231 -37 -44 -13 -48 -17 -42 -41 16 -71 50 -164 86
-232 36 -68 38 -76 22 -85 -70 -41 -142 -95 -201 -150 l-68 -65 68 -65 c59
-55 131 -109 201 -150 16 -9 14 -17 -22 -85 -36 -68 -70 -160 -86 -232 -6 -26
-3 -28 61 -49 45 -14 107 -23 181 -26 l112 -6 0 -78 c0 -43 5 -102 11 -131 11
-56 38 -148 44 -148 28 0 199 61 255 91 68 37 76 39 85 23 41 -70 95 -142 150
-201 l65 -68 65 68 c55 59 109 131 150 201 9 16 17 14 85 -23 57 -30 227 -91
256 -91 2 0 13 30 25 67 14 45 23 107 26 181 l6 112 78 0 c43 0 102 5 131 11
56 11 148 38 148 44 0 28 -61 199 -91 255 -37 68 -39 76 -23 85 70 41 142 95
201 150 l68 65 -68 65 c-59 55 -131 109 -201 150 -16 9 -14 17 22 85 36 68 70
161 86 232 6 24 2 28 -42 41 -80 26 -150 37 -231 37 l-78 0 -5 108 c-4 95 -29
224 -48 245 -11 13 -181 -42 -260 -84 -68 -37 -76 -39 -85 -23 -56 95 -193
264 -215 264 -5 0 -36 -30 -70 -67z m202 -193 l37 -63 -59 -64 c-33 -35 -70
-81 -82 -103 -13 -22 -25 -40 -28 -40 -3 0 -15 18 -27 39 -13 22 -49 67 -80
101 l-57 62 32 62 c18 34 55 88 83 119 l50 57 47 -54 c26 -29 64 -82 84 -116z
m-555 1 c40 -16 95 -43 122 -60 l49 -32 -14 -52 c-8 -29 -17 -87 -21 -129 -3
-43 -7 -78 -8 -78 -1 0 -28 13 -60 29 -33 17 -87 37 -122 47 l-63 17 0 80 c0
97 18 207 34 207 6 -1 44 -14 83 -29z m952 -28 c6 -31 11 -95 11 -143 l0 -87
-63 -17 c-35 -10 -89 -30 -122 -47 -32 -16 -59 -29 -61 -29 -2 0 -4 24 -4 53
0 28 -8 87 -19 129 l-18 78 48 31 c47 30 181 88 205 89 6 0 16 -26 23 -57z
m-666 -174 c25 -28 57 -75 72 -105 25 -49 26 -57 16 -104 -14 -65 -14 -184 0
-233 18 -68 3 -64 -20 4 -24 74 -62 138 -117 198 l-37 42 6 102 c6 106 14 147
27 147 5 0 29 -23 53 -51z m341 29 c4 -13 10 -69 13 -125 l6 -102 -45 -53
c-59 -70 -84 -113 -113 -195 -17 -45 -23 -56 -20 -33 15 109 17 197 5 259 -13
67 -12 69 16 121 29 53 109 150 124 150 4 0 11 -10 14 -22z m624 -160 c34 -5
62 -11 62 -12 -3 -33 -46 -135 -87 -207 l-32 -56 -68 18 c-37 10 -96 18 -130
18 -35 1 -63 3 -63 5 0 2 15 37 34 77 19 41 40 96 46 121 11 44 14 47 49 50
48 4 112 -1 189 -14z m-1418 -30 c6 -24 24 -74 41 -113 17 -38 33 -75 35 -81
3 -7 -23 -13 -78 -17 -46 -3 -104 -13 -130 -21 l-48 -14 -34 57 c-37 61 -72
142 -78 181 -3 22 2 26 47 36 28 7 91 13 142 13 l92 1 11 -42z m230 -34 c64
-35 79 -52 102 -120 22 -66 72 -147 117 -188 52 -50 35 -50 -25 -1 -71 57
-124 88 -191 110 -30 9 -61 28 -73 43 -30 37 -80 147 -87 187 l-6 35 57 -20
c31 -10 79 -31 106 -46z m856 -33 c-45 -112 -71 -142 -153 -172 -74 -27 -107
-47 -185 -112 -27 -21 -48 -36 -48 -32 0 4 21 30 46 59 46 50 114 174 114 207
0 33 91 93 195 129 63 22 67 12 31 -79z m-896 -255 c51 -48 140 -97 209 -116
59 -16 44 -25 -19 -11 -65 14 -175 14 -239 0 -48 -10 -54 -9 -112 22 -34 18
-84 53 -112 78 l-50 46 44 11 c24 7 86 12 138 13 l94 1 47 -44z m1074 31 l50
-12 -54 -48 c-30 -27 -81 -62 -113 -79 -55 -27 -63 -29 -103 -19 -55 14 -179
14 -244 0 -64 -14 -78 -5 -19 11 64 17 167 74 218 120 l44 40 86 -1 c47 0 108
-6 135 -12z m-1309 -173 c25 -14 45 -29 45 -32 0 -4 -18 -17 -39 -29 -22 -13
-68 -49 -101 -80 l-62 -57 -65 34 c-35 19 -88 56 -116 82 l-52 48 53 49 c29
28 80 66 114 85 l62 35 58 -54 c32 -30 79 -66 103 -81z m1550 61 c33 -24 71
-55 85 -70 l25 -27 -54 -49 c-30 -27 -82 -63 -117 -81 l-62 -32 -55 51 c-31
28 -76 63 -101 79 -25 16 -46 31 -46 34 0 3 28 23 61 45 33 22 78 59 101 82
41 42 41 42 72 26 17 -8 58 -35 91 -58z m-885 -70 c26 -32 -13 -81 -47 -59
-35 22 -23 74 17 74 10 0 23 -7 30 -15z m-365 -80 c50 0 113 3 140 8 47 7 46
6 -28 -22 -80 -29 -165 -81 -207 -126 -21 -22 -32 -25 -95 -25 -78 0 -185 18
-185 31 0 14 98 93 152 122 45 24 59 27 93 20 22 -4 81 -8 130 -8z m626 -1
c47 -4 102 -2 143 6 64 12 68 11 120 -15 53 -27 156 -109 156 -124 0 -13 -107
-31 -183 -31 -67 0 -70 1 -120 43 -69 58 -113 83 -194 112 -45 17 -56 23 -33
20 19 -3 69 -8 111 -11z m-446 -110 c-57 -71 -88 -124 -110 -191 -9 -30 -28
-61 -43 -73 -34 -28 -142 -79 -183 -87 -32 -6 -32 -6 -26 28 9 46 71 171 97
194 11 10 45 27 76 37 66 22 147 72 188 117 50 52 50 35 1 -25z m329 10 c50
-46 174 -114 207 -114 34 0 93 -90 130 -198 l19 -54 -33 6 c-39 8 -147 58
-187 86 -18 13 -34 39 -45 73 -23 69 -58 130 -112 195 -25 28 -41 52 -38 52 4
0 30 -21 59 -46z m-223 -54 c-14 -66 -14 -175 0 -238 11 -46 10 -52 -20 -108
-32 -60 -106 -154 -121 -154 -14 0 -30 96 -30 179 0 76 1 80 35 117 55 61 92
123 116 197 25 78 36 82 20 7z m170 -122 c13 -18 40 -54 61 -79 36 -44 38 -51
38 -116 0 -76 -18 -183 -31 -183 -15 0 -97 103 -124 156 -26 52 -27 56 -15
120 12 61 10 152 -5 254 -4 22 5 6 24 -42 16 -43 40 -93 52 -110z m-791 56
c36 -7 86 -14 113 -14 26 0 47 -2 47 -5 0 -3 -13 -32 -30 -64 -16 -33 -37 -87
-46 -120 l-17 -61 -83 0 c-81 0 -181 15 -197 29 -14 14 48 167 95 234 14 19
26 26 37 22 9 -4 45 -13 81 -21z m1469 -23 c34 -53 77 -152 83 -191 3 -22 -2
-26 -47 -36 -27 -7 -91 -13 -141 -13 l-91 -1 -17 61 c-9 33 -30 87 -46 120
-17 32 -30 60 -30 62 0 2 35 7 78 10 42 4 97 13 122 21 25 8 48 14 51 15 4 1
21 -21 38 -48z m-1069 -400 c6 -23 13 -48 16 -56 10 -26 -237 -148 -257 -127
-14 14 -29 117 -29 196 l0 84 83 26 c45 14 100 36 122 49 l40 23 7 -77 c3 -42
12 -95 18 -118z m655 150 c39 -17 89 -35 113 -41 l42 -11 0 -88 c0 -48 -5
-113 -11 -144 -11 -54 -13 -56 -38 -50 -50 12 -126 45 -182 79 l-56 34 18 77
c10 43 19 102 19 132 0 39 3 52 13 48 6 -3 44 -19 82 -36z m-352 -87 c16 -24
52 -70 80 -100 l51 -56 -32 -62 c-18 -35 -55 -87 -82 -117 l-50 -54 -48 52
c-26 29 -64 80 -85 114 l-36 62 54 59 c30 32 66 79 81 103 14 25 29 45 32 45
4 -1 20 -21 35 -46z"/>
</g>
</svg>
